<?xml version="1.0" encoding="UTF-8" standalone="no"?>
<!-- Created with Inkscape (http://www.inkscape.org/) -->

<svg
   xmlns:dc="http://purl.org/dc/elements/1.1/"
   xmlns:cc="http://creativecommons.org/ns#"
   xmlns:rdf="http://www.w3.org/1999/02/22-rdf-syntax-ns#"
   xmlns:svg="http://www.w3.org/2000/svg"
   xmlns="http://www.w3.org/2000/svg"
   xmlns:xlink="http://www.w3.org/1999/xlink"
   xmlns:sodipodi="http://sodipodi.sourceforge.net/DTD/sodipodi-0.dtd"
   xmlns:inkscape="http://www.inkscape.org/namespaces/inkscape"
   width="210mm"
   height="297mm"
   viewBox="0 0 210 297"
   version="1.1"
   id="svg8"
   inkscape:version="0.92.4 (5da689c313, 2019-01-14)"
   sodipodi:docname="Background-level-1.svg">
  <defs
     id="defs2">
    <linearGradient
       inkscape:collect="always"
       id="linearGradient1283">
      <stop
         style="stop-color:#666666;stop-opacity:1"
         offset="0"
         id="stop1279" />
      <stop
         style="stop-color:#dde4ff;stop-opacity:1"
         offset="1"
         id="stop1281" />
    </linearGradient>
    <linearGradient
       inkscape:collect="always"
       id="linearGradient821">
      <stop
         style="stop-color:#1866ec;stop-opacity:1"
         offset="0"
         id="stop817" />
      <stop
         style="stop-color:#5790f0;stop-opacity:0.08080808"
         offset="1"
         id="stop819" />
    </linearGradient>
    <filter
       inkscape:collect="always"
       style="color-interpolation-filters:sRGB"
       id="filter1071"
       x="-0.10296384"
       width="1.2059277"
       y="-0.17052694"
       height="1.3410539">
      <feGaussianBlur
         inkscape:collect="always"
         stdDeviation="19.988205"
         id="feGaussianBlur1073" />
    </filter>
    <filter
       inkscape:collect="always"
       style="color-interpolation-filters:sRGB"
       id="filter1139"
       x="-0.11124482"
       width="1.2224896"
       y="-0.19473775"
       height="1.3894755">
      <feGaussianBlur
         inkscape:collect="always"
         stdDeviation="32.772773"
         id="feGaussianBlur1141" />
    </filter>
    <filter
       inkscape:collect="always"
       style="color-interpolation-filters:sRGB"
       id="filter1227"
       x="-0.043763053"
       width="1.0875261"
       y="-0.062856062"
       height="1.1257121">
      <feGaussianBlur
         inkscape:collect="always"
         stdDeviation="4.4935844"
         id="feGaussianBlur1229" />
    </filter>
    <linearGradient
       inkscape:collect="always"
       xlink:href="#linearGradient1283"
       id="linearGradient1285"
       x1="149.1364"
       y1="301.81085"
       x2="149.1364"
       y2="67.148209"
       gradientUnits="userSpaceOnUse" />
    <linearGradient
       inkscape:collect="always"
       xlink:href="#linearGradient1283"
       id="linearGradient1292"
       gradientUnits="userSpaceOnUse"
       x1="149.1364"
       y1="301.81085"
       x2="149.1364"
       y2="67.148209"
       gradientTransform="scale(3.7795275)" />
    <linearGradient
       inkscape:collect="always"
       xlink:href="#linearGradient821"
       id="linearGradient1328"
       gradientUnits="userSpaceOnUse"
       gradientTransform="translate(1.6411813e-4,-424.42411)"
       x1="153.94724"
       y1="270.27307"
       x2="153.94725"
       y2="-14.10173" />
    <linearGradient
       inkscape:collect="always"
       xlink:href="#linearGradient1283"
       id="linearGradient1330"
       gradientUnits="userSpaceOnUse"
       gradientTransform="translate(4.1181294e-6,-424.42402)"
       x1="149.1364"
       y1="301.81085"
       x2="149.1364"
       y2="67.148209" />
    <linearGradient
       inkscape:collect="always"
       xlink:href="#linearGradient821"
       id="linearGradient1428"
       gradientUnits="userSpaceOnUse"
       gradientTransform="translate(-3.0236454,-35.864585)"
       x1="153.94724"
       y1="270.27307"
       x2="153.94725"
       y2="-14.10173" />
    <linearGradient
       inkscape:collect="always"
       xlink:href="#linearGradient1283"
       id="linearGradient1430"
       gradientUnits="userSpaceOnUse"
       gradientTransform="translate(-3.0238054,-35.864495)"
       x1="149.1364"
       y1="301.81085"
       x2="149.1364"
       y2="67.148209" />
    <linearGradient
       inkscape:collect="always"
       xlink:href="#linearGradient821"
       id="linearGradient1589"
       gradientUnits="userSpaceOnUse"
       gradientTransform="translate(-0.88548918,329.76013)"
       x1="153.94724"
       y1="270.27307"
       x2="153.94725"
       y2="-14.10173" />
    <linearGradient
       inkscape:collect="always"
       xlink:href="#linearGradient1283"
       id="linearGradient1591"
       gradientUnits="userSpaceOnUse"
       gradientTransform="translate(-0.88564918,329.76022)"
       x1="149.1364"
       y1="301.81085"
       x2="149.1364"
       y2="67.148209" />
    <linearGradient
       inkscape:collect="always"
       xlink:href="#linearGradient821"
       id="linearGradient1328-2"
       gradientUnits="userSpaceOnUse"
       gradientTransform="matrix(20,0,0,1,1973.8703,888.66146)"
       x1="153.94724"
       y1="270.27307"
       x2="153.94725"
       y2="-14.10173" />
  </defs>
  <sodipodi:namedview
     id="base"
     pagecolor="#ffffff"
     bordercolor="#666666"
     borderopacity="1.0"
     inkscape:pageopacity="0.0"
     inkscape:pageshadow="2"
     inkscape:zoom="0.35"
     inkscape:cx="-396.11928"
     inkscape:cy="-2733.1023"
     inkscape:document-units="px"
     inkscape:current-layer="layer1"
     showgrid="false"
     inkscape:window-width="1920"
     inkscape:window-height="1017"
     inkscape:window-x="-8"
     inkscape:window-y="-8"
     inkscape:window-maximized="1"
     showborder="false" />
  <metadata
     id="metadata5">
    <rdf:RDF>
      <cc:Work
         rdf:about="">
        <dc:format>image/svg+xml</dc:format>
        <dc:type
           rdf:resource="http://purl.org/dc/dcmitype/StillImage" />
        <dc:title></dc:title>
      </cc:Work>
    </rdf:RDF>
  </metadata>
  <g
     inkscape:label="Layer 1"
     inkscape:groupmode="layer"
     id="layer1">
    <rect
       y="-439.29391"
       x="-104.43858"
       height="285.75"
       width="508"
       id="rect1318"
       style="fill:url(#linearGradient1328);fill-opacity:1;stroke:none;stroke-width:0.08928159;stroke-linecap:round;stroke-miterlimit:4;stroke-dasharray:none;stroke-opacity:1;paint-order:normal" />
    <path
       style="fill:#fdffc8;fill-opacity:0.52261305;stroke:none;stroke-width:1.09768701;stroke-linecap:round;stroke-miterlimit:4;stroke-dasharray:none;stroke-opacity:1;paint-order:normal;filter:url(#filter1139)"
       d="M 731.9707 -1660.3242 A 353.52083 353.52083 0 0 0 730.37305 -1633.9434 A 353.52083 353.52083 0 0 0 1083.8945 -1280.4238 A 353.52083 353.52083 0 0 0 1437.4141 -1633.9434 A 353.52083 353.52083 0 0 0 1435.9082 -1660.3242 L 731.9707 -1660.3242 z "
       transform="scale(0.26458333)"
       id="path1320" />
    <path
       style="fill:#fcff95;fill-opacity:0.63316585;stroke:none;stroke-width:0.72332603;stroke-linecap:round;stroke-miterlimit:4;stroke-dasharray:none;stroke-opacity:1;paint-order:normal;filter:url(#filter1071)"
       d="M 848.27344 -1660.3242 A 232.95423 232.95423 0 0 0 846.89844 -1635.9648 A 232.95423 232.95423 0 0 0 1079.8535 -1403.0098 A 232.95423 232.95423 0 0 0 1312.8066 -1635.9648 A 232.95423 232.95423 0 0 0 1311.3379 -1660.3242 L 848.27344 -1660.3242 z "
       transform="scale(0.26458333)"
       id="path1322" />
    <path
       style="fill:#faff61;fill-opacity:1;stroke:none;stroke-width:0.38258696;stroke-linecap:round;stroke-miterlimit:4;stroke-dasharray:none;stroke-opacity:1;paint-order:normal;filter:url(#filter1227)"
       d="M 959.10352 -1660.3242 A 123.21587 123.21587 0 0 0 956.63672 -1635.9648 A 123.21587 123.21587 0 0 0 1079.8535 -1512.748 A 123.21587 123.21587 0 0 0 1203.0684 -1635.9648 A 123.21587 123.21587 0 0 0 1200.5625 -1660.3242 L 959.10352 -1660.3242 z "
       transform="scale(0.26458333)"
       id="path1324" />
    <path
       sodipodi:nodetypes="cccccccscccccsccccc"
       inkscape:connector-curvature="0"
       id="path1326"
       d="m -63.610066,-364.22458 -40.828524,34.48575 v 176.19491 h 508 v -180.37466 l -16.02073,25.82029 -8.01812,-8.55245 c 0,0 -20.22412,31.02588 -36.34867,32.07246 -18.44384,1.19712 -45.97032,-31.00328 -45.97032,-31.00328 l -16.57057,13.89786 -41.15977,-30.46894 -23.51949,14.43271 -25.65787,-21.38164 c 0,0 -28.5955,51.46224 -53.98843,54.52329 -18.26442,2.20173 -47.039506,-28.86542 -47.039506,-28.86542 l -29.93409,19.24327 -33.67598,-25.65787 -23.5194899,17.10542 z"
       style="fill:url(#linearGradient1330);fill-opacity:1;stroke:none;stroke-width:0.26458332px;stroke-linecap:butt;stroke-linejoin:miter;stroke-opacity:1" />
    <rect
       style="fill:url(#linearGradient1428);fill-opacity:1;stroke:none;stroke-width:0.08928159;stroke-linecap:round;stroke-miterlimit:4;stroke-dasharray:none;stroke-opacity:1;paint-order:normal"
       id="rect1418"
       width="508"
       height="285.75"
       x="-107.46239"
       y="-50.73439" />
    <path
       id="path1420"
       transform="matrix(0.26458333,0,0,0.26458333,-3.0238095,388.55952)"
       d="m 731.9707,-1660.3242 a 353.52083,353.52083 0 0 0 -1.59765,26.3808 353.52083,353.52083 0 0 0 353.52145,353.5196 353.52083,353.52083 0 0 0 353.5196,-353.5196 353.52083,353.52083 0 0 0 -1.5059,-26.3808 z"
       style="fill:#fdffc8;fill-opacity:0.52261305;stroke:none;stroke-width:1.09768701;stroke-linecap:round;stroke-miterlimit:4;stroke-dasharray:none;stroke-opacity:1;paint-order:normal;filter:url(#filter1139)"
       inkscape:connector-curvature="0" />
    <path
       id="path1422"
       transform="matrix(0.26458333,0,0,0.26458333,-3.0238095,388.55952)"
       d="m 848.27344,-1660.3242 a 232.95423,232.95423 0 0 0 -1.375,24.3594 232.95423,232.95423 0 0 0 232.95506,232.955 232.95423,232.95423 0 0 0 232.9531,-232.955 232.95423,232.95423 0 0 0 -1.4687,-24.3594 z"
       style="fill:#fcff95;fill-opacity:0.63316585;stroke:none;stroke-width:0.72332603;stroke-linecap:round;stroke-miterlimit:4;stroke-dasharray:none;stroke-opacity:1;paint-order:normal;filter:url(#filter1071)"
       inkscape:connector-curvature="0" />
    <path
       id="path1424"
       transform="matrix(0.26458333,0,0,0.26458333,-3.0238095,388.55952)"
       d="m 959.10352,-1660.3242 a 123.21587,123.21587 0 0 0 -2.4668,24.3594 123.21587,123.21587 0 0 0 123.21678,123.2168 123.21587,123.21587 0 0 0 123.2149,-123.2168 123.21587,123.21587 0 0 0 -2.5059,-24.3594 z"
       style="fill:#faff61;fill-opacity:1;stroke:none;stroke-width:0.38258696;stroke-linecap:round;stroke-miterlimit:4;stroke-dasharray:none;stroke-opacity:1;paint-order:normal;filter:url(#filter1227)"
       inkscape:connector-curvature="0" />
    <path
       style="fill:url(#linearGradient1430);fill-opacity:1;stroke:none;stroke-width:0.26458332px;stroke-linecap:butt;stroke-linejoin:miter;stroke-opacity:1"
       d="M -66.633876,24.334945 -107.4624,58.820695 V 235.0156 h 508 V 54.640945 l -16.02073,25.82029 -8.01812,-8.55245 c 0,0 -20.22412,31.025875 -36.34867,32.072455 -18.44384,1.19712 -45.97032,-31.003275 -45.97032,-31.003275 l -16.57057,13.89786 -41.15977,-30.46894 -23.51949,14.43271 -25.65787,-21.38164 c 0,0 -28.5955,51.462235 -53.98843,54.523285 -18.26442,2.20173 -47.039506,-28.865415 -47.039506,-28.865415 l -29.93409,19.24327 -33.67598,-25.65787 -23.51948943,17.10542 z"
       id="path1426"
       inkscape:connector-curvature="0"
       sodipodi:nodetypes="cccccccscccccsccccc" />
    <path
       style="fill:#73aba4;fill-opacity:1;stroke:none;stroke-width:0.37745094px;stroke-linecap:butt;stroke-linejoin:miter;stroke-opacity:1"
       d="M -308.68164 381.61328 L -333.17383 454.39258 L -335.62891 434.76367 L -353.16797 493.48242 C -353.16797 493.48242 -360.39741 449.43349 -360.20117 440.73242 C -361.74331 447.28715 -369.94336 475.17969 -369.94336 475.17969 C -369.94336 475.17969 -376.80748 427.90183 -376.04492 424.85156 C -375.28233 421.80129 -395.87109 470.60547 -395.87109 470.60547 L -406.15625 425.83203 L -406.15625 572.99609 L -406.15625 597.78711 L -406.15625 888.24805 L 1513.8438 888.24805 L 1513.8438 659.67969 L 1513.8438 572.99609 L 1513.8438 554.37891 L 1513.625 555.11133 C 1513.625 555.11133 1506.3916 511.03844 1506.5918 502.35352 C 1505.0534 508.89674 1496.8477 536.80859 1496.8477 536.80859 C 1496.8477 536.80859 1489.9855 489.53074 1490.748 486.48047 C 1491.5106 483.4302 1470.9199 532.23438 1470.9199 532.23438 L 1457.957 475.80469 L 1419.8281 534.52148 C 1419.8281 534.52148 1411.4403 451.40159 1410.6777 446.82617 C 1409.9152 442.25079 1393.9023 494.10547 1393.9023 494.10547 L 1383.9883 462.07812 L 1375.5996 517.74609 L 1364.1621 439.20117 L 1339.1348 513.5625 L 1335.0254 480.6875 L 1313.6738 525.67773 L 1307.5723 490.59961 L 1291.5586 531.7793 L 1277.834 480.6875 L 1263.3438 518.05273 L 1257.2441 486.02539 L 1248.0938 518.81445 L 1244.2793 488.3125 L 1226.7402 547.0293 C 1226.7402 547.0293 1219.5116 502.98569 1219.707 494.28125 C 1218.1649 500.83598 1209.9648 528.72852 1209.9648 528.72852 C 1209.9648 528.72852 1203.1007 481.44871 1203.8633 478.39844 C 1204.6258 475.34817 1184.0371 524.15234 1184.0371 524.15234 L 1171.0742 467.72266 L 1132.9453 526.44141 C 1132.9453 526.44141 1124.5575 443.32151 1123.7949 438.74609 C 1123.0324 434.17071 1107.0176 486.02539 1107.0176 486.02539 L 1097.1055 453.99609 L 1088.7168 509.66406 L 1077.2773 431.11914 L 1055.3242 496.35156 L 1051.4395 465.27734 L 1030.0879 510.26758 L 1023.9883 475.18945 L 1007.9746 516.36914 L 994.24805 465.27734 L 979.75977 502.64258 L 973.6582 470.61523 L 964.50781 503.4043 L 960.69531 472.90234 L 943.15625 531.61914 C 943.15625 531.61914 935.92382 487.55211 936.12305 478.86328 C 934.58465 485.4065 926.37891 513.31836 926.37891 513.31836 C 926.37891 513.31836 919.51674 466.03855 920.2793 462.98828 C 921.04185 459.93801 900.45117 508.74219 900.45117 508.74219 L 887.48828 452.3125 L 849.35938 511.03125 C 849.35937 511.03125 840.97154 427.91136 840.20898 423.33594 C 839.45422 418.80732 823.85789 469.24911 823.53711 470.28711 L 823.41211 470.54688 L 813.51953 438.58789 L 805.86914 489.35156 L 802.08008 467.56445 L 801.47266 469.12891 L 793.69336 415.71094 L 775.55469 469.60742 L 772.3418 457.65039 L 757.85156 495.01758 L 751.75195 462.98828 L 742.60156 495.7793 L 738.78711 465.27734 L 721.24805 523.99414 C 721.24805 523.99414 714.01845 479.94468 714.21484 471.24414 C 712.67287 477.79833 704.47266 505.69336 704.47266 505.69336 C 704.47266 505.69336 697.60854 458.41355 698.37109 455.36328 C 699.13365 452.31301 678.54492 501.11719 678.54492 501.11719 L 665.58203 444.6875 L 627.45312 503.4043 C 627.45312 503.4043 619.06529 420.28636 618.30273 415.71094 C 617.54018 411.13555 601.52539 462.98828 601.52539 462.98828 L 591.61328 430.96094 L 583.22461 486.62891 L 571.78516 408.08398 L 545.0957 487.39062 L 536.70703 525.51953 L 525.26953 434.01172 L 503.91797 479.00391 L 497.81641 443.92578 L 481.80273 485.10352 L 468.07617 434.01172 L 453.58789 471.37695 L 447.48828 439.34961 L 438.33594 472.14062 L 434.52344 441.63672 L 416.98438 500.35547 C 416.98437 500.35547 409.75494 456.30653 409.95117 447.60547 C 408.40904 454.1602 400.20898 482.05273 400.20898 482.05273 C 400.20898 482.05273 393.34483 434.77488 394.10742 431.72461 C 394.86998 428.67434 374.28125 477.47852 374.28125 477.47852 L 361.31836 421.04883 L 323.18945 479.76562 C 323.18945 479.76563 314.80162 396.64573 314.03906 392.07031 C 313.27651 387.49493 297.26172 439.34961 297.26172 439.34961 L 287.34961 407.32227 L 278.96094 462.98828 L 267.52148 384.44531 L 240.83203 463.75195 L 241.70703 517.39453 L 231.10742 432.5957 L 209.75586 477.58594 L 203.6543 442.50781 L 187.64062 483.6875 L 173.91406 432.5957 L 159.42578 469.96094 L 153.32617 437.93359 L 144.17383 470.72461 L 140.36133 440.2207 L 122.82227 498.93945 C 122.82227 498.93945 115.5908 454.87633 115.78906 446.18359 C 114.24974 452.72966 106.04687 480.63672 106.04688 480.63672 C 106.04687 480.63672 99.182749 433.35886 99.945312 430.30859 C 100.70788 427.25833 80.119141 476.0625 80.119141 476.0625 L 67.15625 419.63086 L 29.027344 478.34961 C 29.027344 478.34961 20.639511 395.22972 19.876953 390.6543 C 19.114396 386.07891 3.0996094 437.93359 3.0996094 437.93359 L -6.8144531 405.90625 L -15.201172 461.57227 L -26.640625 383.0293 L -48.742188 448.70508 L -50.933594 431.17969 L -72.285156 476.16992 L -78.386719 441.0918 L -94.400391 482.27148 L -108.125 431.17969 L -122.61523 468.54492 L -128.71484 436.51758 L -137.86523 469.30664 L -141.67969 438.80469 L -159.21875 497.52148 C -159.21875 497.52148 -166.44738 453.47788 -166.25195 444.77344 C -167.7941 451.32817 -175.99414 479.2207 -175.99414 479.2207 C -175.99414 479.2207 -182.85827 431.94089 -182.0957 428.89062 C -181.33313 425.84038 -201.92188 474.64453 -201.92188 474.64453 L -214.88477 418.21484 L -240.97461 458.39453 L -244.88281 427.13867 L -255.75195 450.04102 C -258.28681 425.12963 -261.64487 392.3535 -262.16406 389.23828 C -262.92662 384.6629 -278.94141 436.51758 -278.94141 436.51758 L -288.85352 404.49023 L -295.79102 450.53125 L -302.02148 427.34375 L -308.68164 381.61328 z M -166.25195 444.77344 C -165.97989 443.61706 -165.85137 442.92343 -166.08008 443.38086 C -166.1883 443.59731 -166.23703 444.10858 -166.25195 444.77344 z M 115.78906 446.18359 C 116.0602 445.03057 116.18739 444.34006 115.95898 444.79688 C 115.85103 445.01277 115.80417 445.52139 115.78906 446.18359 z M 409.95117 447.60547 C 410.22323 446.44909 410.34981 445.75547 410.12109 446.21289 C 410.01295 446.42919 409.96615 446.94138 409.95117 447.60547 z M 714.21484 471.24414 C 714.48685 470.08798 714.61541 469.39418 714.38672 469.85156 C 714.27858 470.06784 714.22983 470.58017 714.21484 471.24414 z M 936.12305 478.86328 C 936.39388 477.71136 936.52127 477.02191 936.29297 477.47852 C 936.1851 477.69426 936.13821 478.20196 936.12305 478.86328 z M 1219.707 494.28125 C 1219.9791 493.12488 1220.1076 492.42929 1219.8789 492.88672 C 1219.7707 493.10317 1219.722 493.61639 1219.707 494.28125 z M 1506.5918 502.35352 C 1506.8626 501.20159 1506.99 500.51214 1506.7617 500.96875 C 1506.6539 501.18431 1506.607 501.69308 1506.5918 502.35352 z M -360.20117 440.73242 C -359.92911 439.57605 -359.80058 438.88242 -360.0293 439.33984 C -360.13744 439.55614 -360.18619 440.06833 -360.20117 440.73242 z "
       transform="scale(0.26458333)"
       id="path1439" />
    <rect
       y="314.89032"
       x="-105.32423"
       height="285.75"
       width="508"
       id="rect1577"
       style="fill:url(#linearGradient1589);fill-opacity:1;stroke:none;stroke-width:0.08928159;stroke-linecap:round;stroke-miterlimit:4;stroke-dasharray:none;stroke-opacity:1;paint-order:normal" />
    <path
       inkscape:connector-curvature="0"
       style="fill:#fdffc8;fill-opacity:0.52261305;stroke:none;stroke-width:1.09768701;stroke-linecap:round;stroke-miterlimit:4;stroke-dasharray:none;stroke-opacity:1;paint-order:normal;filter:url(#filter1139)"
       d="m 731.9707,-1660.3242 a 353.52083,353.52083 0 0 0 -1.59765,26.3808 353.52083,353.52083 0 0 0 353.52145,353.5196 353.52083,353.52083 0 0 0 353.5196,-353.5196 353.52083,353.52083 0 0 0 -1.5059,-26.3808 z"
       transform="matrix(0.26458333,0,0,0.26458333,-0.88565328,754.18423)"
       id="path1579" />
    <path
       inkscape:connector-curvature="0"
       style="fill:#fcff95;fill-opacity:0.63316585;stroke:none;stroke-width:0.72332603;stroke-linecap:round;stroke-miterlimit:4;stroke-dasharray:none;stroke-opacity:1;paint-order:normal;filter:url(#filter1071)"
       d="m 848.27344,-1660.3242 a 232.95423,232.95423 0 0 0 -1.375,24.3594 232.95423,232.95423 0 0 0 232.95506,232.955 232.95423,232.95423 0 0 0 232.9531,-232.955 232.95423,232.95423 0 0 0 -1.4687,-24.3594 z"
       transform="matrix(0.26458333,0,0,0.26458333,-0.88565328,754.18423)"
       id="path1581" />
    <path
       inkscape:connector-curvature="0"
       style="fill:#faff61;fill-opacity:1;stroke:none;stroke-width:0.38258696;stroke-linecap:round;stroke-miterlimit:4;stroke-dasharray:none;stroke-opacity:1;paint-order:normal;filter:url(#filter1227)"
       d="m 959.10352,-1660.3242 a 123.21587,123.21587 0 0 0 -2.4668,24.3594 123.21587,123.21587 0 0 0 123.21678,123.2168 123.21587,123.21587 0 0 0 123.2149,-123.2168 123.21587,123.21587 0 0 0 -2.5059,-24.3594 z"
       transform="matrix(0.26458333,0,0,0.26458333,-0.88565328,754.18423)"
       id="path1583" />
    <path
       sodipodi:nodetypes="cccccccscccccsccccc"
       inkscape:connector-curvature="0"
       id="path1585"
       d="m -64.49572,389.95966 -40.82852,34.48575 v 176.1949 h 508 V 420.26566 l -16.02073,25.82029 -8.01812,-8.55245 c 0,0 -20.22412,31.02587 -36.34867,32.07245 -18.44384,1.19712 -45.97032,-31.00327 -45.97032,-31.00327 l -16.57057,13.89786 -41.15977,-30.46894 -23.51949,14.43271 -25.65787,-21.38164 c 0,0 -28.5955,51.46223 -53.98843,54.52328 -18.26442,2.20173 -47.03951,-28.86541 -47.03951,-28.86541 L 58.44819,459.98381 24.77221,434.32594 1.2527208,451.43136 Z"
       style="fill:url(#linearGradient1591);fill-opacity:1;stroke:none;stroke-width:0.26458332px;stroke-linecap:butt;stroke-linejoin:miter;stroke-opacity:1" />
    <path
       id="path1587"
       d="m -79.53386,466.59323 -6.480225,19.25619 -0.649573,-5.19349 -4.640543,15.53601 c 0,0 -1.91279,-11.65462 -1.860868,-13.95677 -0.408024,1.73427 -2.577621,9.11417 -2.577621,9.11417 0,0 -1.816132,-12.50893 -1.614371,-13.31599 0.201769,-0.80705 -5.245679,12.10573 -5.245679,12.10573 l -2.72128,-11.84631 v 38.93716 6.55929 76.85112 h 508.00001 v -60.47538 -22.93503 -4.9258 l -0.0579,0.19379 c 0,0 -1.91384,-11.66095 -1.86087,-13.95884 -0.40703,1.73123 -2.57812,9.11624 -2.57812,9.11624 0,0 -1.81563,-12.50893 -1.61388,-13.31598 0.20177,-0.80705 -5.24619,12.10572 -5.24619,12.10572 L 387.88927,491.5147 377.801,507.05019 c 0,0 -2.21927,-21.99214 -2.42104,-23.20272 -0.20175,-1.21057 -4.43849,12.50931 -4.43849,12.50931 l -2.62308,-8.4739 -2.21951,14.72882 -3.02617,-20.78168 -6.62181,19.67477 -1.08728,-8.69818 -5.64928,11.90367 -1.61435,-9.28109 -4.23696,10.89546 -3.6313,-13.51804 -3.83386,9.88622 -1.61388,-8.4739 -2.42102,8.67544 -1.00925,-8.07031 -4.64056,15.53549 c 0,0 -1.91256,-11.65321 -1.86086,-13.95626 -0.40802,1.73428 -2.57763,9.11418 -2.57763,9.11418 0,0 -1.81612,-12.50945 -1.61435,-13.3165 0.20174,-0.80705 -5.24569,12.10572 -5.24569,12.10572 l -3.42976,-14.93036 -10.08827,15.53601 c 0,0 -2.21928,-21.99214 -2.42105,-23.20272 -0.20174,-1.21057 -4.43899,12.50931 -4.43899,12.50931 l -2.62258,-8.47442 -2.21951,14.72882 -3.0267,-20.78168 -5.80842,17.25941 -1.02783,-8.22172 -5.64928,11.90367 -1.61385,-9.28109 -4.23696,10.89546 -3.63181,-13.51804 -3.83336,9.88622 -1.61437,-8.4739 -2.42105,8.67544 -1.00872,-8.07031 -4.64054,15.53549 c 0,0 -1.91358,-11.6594 -1.86087,-13.95832 -0.40703,1.73122 -2.57814,9.11624 -2.57814,9.11624 0,0 -1.81561,-12.50945 -1.61385,-13.3165 0.20176,-0.80706 -5.24619,12.10572 -5.24619,12.10572 l -3.42977,-14.93036 -10.08827,15.536 c 0,0 -2.21928,-21.99213 -2.42104,-23.20271 -0.1997,-1.1982 -4.32623,12.14786 -4.4111,12.42249 l -0.0331,0.0687 -2.61741,-8.45581 -2.02416,13.43122 -1.00253,-5.76451 -0.16071,0.41393 -2.05827,-14.1335 -4.79919,14.26011 -0.85008,-3.16363 -3.83387,9.88673 -1.61386,-8.47441 -2.42104,8.67595 -1.00924,-8.07031 -4.64054,15.53549 c 0,0 -1.91283,-11.65475 -1.86087,-13.95677 -0.40798,1.73413 -2.57762,9.11469 -2.57762,9.11469 0,0 -1.81613,-12.50945 -1.61438,-13.3165 0.20177,-0.80705 -5.24567,12.10572 -5.24567,12.10572 l -3.42976,-14.93036 -10.08828,15.53549 c 0,0 -2.21928,-21.99162 -2.42104,-23.2022 -0.20176,-1.21057 -4.439,12.5088 -4.439,12.5088 l -2.62258,-8.47391 -2.2195,14.72882 -3.02669,-20.78168 -7.06159,20.98322 -2.2195,10.08827 -3.02617,-24.21144 -5.64927,11.90418 -1.61437,-9.28108 -4.23695,10.89494 -3.63182,-13.51804 -3.83336,9.88622 -1.61385,-8.4739 -2.42156,8.67595 -1.00873,-8.07082 -4.64054,15.536 c 0,0 -1.91279,-11.65461 -1.86087,-13.95677 -0.40802,1.73427 -2.57762,9.11417 -2.57762,9.11417 0,0 -1.81614,-12.50893 -1.61437,-13.31598 0.20176,-0.80705 -5.24567,12.10572 -5.24567,12.10572 L 97.736971,477.02722 87.648697,492.5627 c 0,0 -2.21928,-21.99214 -2.421041,-23.20272 -0.201758,-1.21057 -4.439004,12.50932 -4.439004,12.50932 l -2.622579,-8.4739 -2.219502,14.7283 -3.026691,-20.78117 -7.061583,20.98322 0.23151,14.19293 -2.80448,-22.43635 -5.649267,11.90366 -1.614371,-9.28109 -4.236953,10.89546 -3.631819,-13.51803 -3.833357,9.88621 -1.613855,-8.4739 -2.421557,8.67596 -1.008724,-8.07083 -4.640543,15.53601 c 0,0 -1.913326,-11.65837 -1.86087,-13.95833 -0.407278,1.73199 -2.577621,9.11573 -2.577618,9.11573 -3e-6,0 -1.816135,-12.50894 -1.614373,-13.31599 0.201762,-0.80704 -5.245675,12.10573 -5.245675,12.10573 L 19.90658,476.65204 9.8183076,492.18805 c 0,0 -2.2192808,-21.99214 -2.421041,-23.20272 -0.2017598,-1.21057 -4.4390054,12.50931 -4.4390054,12.50931 l -2.62309567,-8.4739 -2.21898603,14.7283 -3.0266886,-20.78116 -5.8477049,17.37672 -0.57981,-4.63693 -5.649267,11.90367 -1.614372,-9.28109 -4.236951,10.89546 -3.631302,-13.51804 -3.833874,9.88622 -1.613855,-8.4739 -2.42104,8.67544 -1.009243,-8.07031 -4.640543,15.53548 c 0,0 -1.912575,-11.6532 -1.860867,-13.95625 -0.408028,1.73427 -2.577621,9.11417 -2.577621,9.11417 0,0 -1.816135,-12.50945 -1.614371,-13.3165 0.201763,-0.80704 -5.245677,12.10572 -5.245677,12.10572 l -3.429765,-14.93035 -6.902937,10.63088 -1.034044,-8.26978 -2.875793,6.05958 c -0.670682,-6.59114 -1.559169,-15.26316 -1.696538,-16.0874 -0.20176,-1.21056 -4.439007,12.50932 -4.439007,12.50932 l -2.622579,-8.4739 -1.835547,12.18168 -1.648476,-6.13502 z m 37.684522,16.71112 c 0.07198,-0.30596 0.105986,-0.48948 0.04547,-0.36845 -0.02863,0.0573 -0.04153,0.19254 -0.04547,0.36845 z m 74.623349,0.3731 c 0.07174,-0.30507 0.105392,-0.48776 0.04496,-0.3669 -0.02856,0.0571 -0.04096,0.1917 -0.04496,0.3669 z m 77.830389,0.37621 c 0.072,-0.30596 0.10548,-0.48948 0.045,-0.36845 -0.0286,0.0572 -0.041,0.19274 -0.045,0.36845 z m 80.5031,6.2544 c 0.072,-0.3059 0.10598,-0.48947 0.0455,-0.36846 -0.0286,0.0572 -0.0415,0.19278 -0.0455,0.36846 z m 58.71321,2.0159 c 0.0717,-0.30478 0.10536,-0.4872 0.045,-0.36639 -0.0285,0.0571 -0.0409,0.19141 -0.045,0.36639 z m 75.03159,4.07933 c 0.072,-0.30595 0.10599,-0.48999 0.0455,-0.36897 -0.0286,0.0573 -0.0415,0.19306 -0.0455,0.36897 z m 75.90493,2.13579 c 0.0717,-0.30478 0.10536,-0.4872 0.045,-0.36639 -0.0285,0.057 -0.0409,0.19165 -0.045,0.36639 z M -93.165069,482.23517 c 0.07198,-0.30596 0.10599,-0.48948 0.04547,-0.36846 -0.02861,0.0572 -0.04151,0.19275 -0.04547,0.36846 z"
       style="fill:#73aba4;fill-opacity:1;stroke:none;stroke-width:0.09986722px;stroke-linecap:butt;stroke-linejoin:miter;stroke-opacity:1"
       inkscape:connector-curvature="0" />
    <path
       style="fill:#4b9f86;fill-opacity:1;stroke:none;stroke-width:0.63212985px;stroke-linecap:butt;stroke-linejoin:miter;stroke-opacity:1"
       d="M -70.462891 1817.5684 L -107.47656 1927.5586 L -111.14648 1898.207 L -146.9043 1973.5547 L -157.12305 1914.8066 L -183.94141 1983.7734 L -206.92578 1898.207 L -231.19336 1960.7832 L -241.41016 1907.1465 L -256.73438 1962.0605 L -263.12109 1910.9766 L -292.49609 2009.3125 C -292.49609 2009.3125 -304.60078 1935.5503 -304.27344 1920.9727 C -306.85618 1931.95 -320.58984 1978.6641 -320.58984 1978.6641 C -320.58984 1978.6641 -332.0857 1899.4815 -330.80859 1894.373 C -329.53145 1889.2648 -364.01172 1971 -364.01172 1971 L -385.7207 1876.4941 L -398.07617 1895.5234 L -398.07617 2270.1367 L 1521.9238 2270.1367 L 1521.9238 2009.709 C 1518.6836 1986.1337 1514.5867 1954.6397 1515.377 1951.4785 C 1516.6541 1946.37 1482.1699 2028.1035 1482.1699 2028.1035 L 1460.4609 1933.5996 L 1396.6055 2031.9375 C 1396.6055 2031.9375 1382.5564 1892.7329 1381.2793 1885.0703 C 1380.0153 1877.486 1353.8966 1961.9629 1353.3594 1963.7012 L 1353.1504 1964.1367 L 1336.582 1910.6133 L 1323.7695 1995.6289 L 1317.4238 1959.1426 L 1316.4062 1961.7617 L 1303.3789 1872.3008 L 1273.002 1962.5625 L 1267.6211 1942.5391 L 1243.3535 2005.1191 L 1233.1387 1951.4785 L 1217.8145 2006.3945 L 1211.4258 1955.3125 L 1182.0527 2053.6465 C 1182.0527 2053.6465 1169.9445 1979.8758 1170.2734 1965.3047 C 1167.691 1976.2812 1153.957 2022.998 1153.957 2022.998 C 1153.957 2022.998 1142.4632 1943.8174 1143.7402 1938.709 C 1145.0174 1933.6006 1110.5352 2015.334 1110.5352 2015.334 L 1088.8262 1920.8301 L 1024.9707 2019.1641 C 1024.9707 2019.1641 1010.9236 1879.9634 1009.6465 1872.3008 C 1008.3694 1864.6382 981.54883 1951.4785 981.54883 1951.4785 L 964.94922 1897.8398 L 950.90039 1991.0703 L 931.74219 1859.5273 L 887.04297 1992.3457 L 872.99414 2056.2012 L 853.83984 1902.9492 L 818.08203 1978.3008 L 807.86328 1919.5527 L 781.04492 1988.5156 L 758.05664 1902.9492 L 733.79297 1965.5273 L 723.57812 1911.8887 L 708.25 1966.8066 L 701.86523 1915.7207 L 672.49219 2014.0586 C 672.49219 2014.0586 660.38426 1940.2888 660.71289 1925.7168 C 658.13026 1936.6942 644.39648 1983.4062 644.39648 1983.4062 C 644.39648 1983.4062 632.90059 1904.2275 634.17773 1899.1191 C 635.45499 1894.0107 600.97461 1975.7461 600.97461 1975.7461 L 579.26562 1881.2402 L 515.41016 1979.5762 C 515.41016 1979.5762 501.36304 1840.3716 500.08594 1832.709 C 498.80887 1825.0464 471.98828 1911.8906 471.98828 1911.8906 L 455.38867 1858.252 L 441.33984 1951.4785 L 422.18164 1819.9395 L 377.48438 1952.7578 L 378.94922 2042.5938 L 361.19727 1900.5781 L 325.43945 1975.9258 L 315.2207 1917.1797 L 288.40234 1986.1445 L 265.41406 1900.5781 L 241.15039 1963.1562 L 230.93359 1909.5176 L 215.60742 1964.4336 L 209.22266 1913.3477 L 179.84766 2011.6875 C 179.84766 2011.6875 167.73827 1937.892 168.07031 1923.334 C 165.49236 1934.297 151.75391 1981.0352 151.75391 1981.0352 C 151.75391 1981.0352 140.25803 1901.8564 141.53516 1896.748 C 142.81225 1891.6397 108.33203 1973.375 108.33203 1973.375 L 86.623047 1878.8652 L 22.767578 1977.2051 C 22.767578 1977.2051 8.7204504 1838.0005 7.4433594 1830.3379 C 6.1662646 1822.6753 -20.654297 1909.5176 -20.654297 1909.5176 L -37.257812 1855.8809 L -51.304688 1949.1074 L -70.462891 1817.5684 z M 168.07031 1923.334 C 168.5244 1921.403 168.73595 1920.2467 168.35352 1921.0117 C 168.17274 1921.3734 168.09575 1922.225 168.07031 1923.334 z M 660.71289 1925.7168 C 661.16863 1923.7801 661.38072 1922.6187 660.99805 1923.3848 C 660.81701 1923.7468 660.73821 1924.6046 660.71289 1925.7168 z M 1170.2734 1965.3047 C 1170.7292 1963.3684 1170.9434 1962.2067 1170.5605 1962.9727 C 1170.3795 1963.3347 1170.2988 1964.1927 1170.2734 1965.3047 z M -304.27344 1920.9727 C -303.81785 1919.036 -303.60316 1917.8746 -303.98633 1918.6406 C -304.16737 1919.0035 -304.24849 1919.8592 -304.27344 1920.9727 z "
       transform="scale(0.26458333)"
       id="path1593" />
    <path
       inkscape:connector-curvature="0"
       style="fill:#73aba4;fill-opacity:1;stroke:none;stroke-width:0.09986723px;stroke-linecap:butt;stroke-linejoin:miter;stroke-opacity:1"
       d="m 1023.8787,119.26119 c 0,0 -2.4484,-4.24423 -2.3954,-6.54211 -0.4071,1.73122 -1.4992,15.17044 -1.4992,15.17044 0,0 -3.1386,-11.18603 -2.9369,-11.99308 0.2018,-0.80705 -1.8443,14.1846 -1.8443,14.1846 l -5.8866,-10.39464 -4.0407,18.18131 c 0,0 -2.2192,-21.99213 -2.421,-23.20271 -0.2018,-1.21057 -4.4385,12.50931 -4.4385,12.50931 l -2.62308,-8.4739 -2.21951,14.72882 -3.02618,-20.78168 -6.6218,19.67477 -1.08728,-8.69818 -5.64928,11.90366 -1.61435,-9.28108 -4.23696,10.89546 -3.6313,-13.51804 -3.83387,9.88622 -1.61388,-8.4739 -2.42101,8.67544 -1.00926,-8.07031 -4.64055,15.53548 c 0,0 -1.91257,-11.6532 -1.86087,-13.95625 -0.40801,1.73427 -2.57762,9.11417 -2.57762,9.11417 0,0 -1.81613,-12.50945 -1.61436,-13.3165 0.20175,-0.80705 -5.24568,12.10572 -5.24568,12.10572 l -3.42976,-14.93035 -10.08827,15.536 c 0,0 -2.21927,-21.99214 -2.42104,-23.20272 -0.20175,-1.21057 -4.43899,12.50932 -4.43899,12.50932 l -2.62258,-8.47442 -2.21951,14.72881 -3.0267,-20.78167 -5.80843,17.25941 -1.02782,-8.22172 -5.64928,11.90367 -1.61385,-9.28109 -4.23696,10.89546 -3.63183,-13.51804 -3.83336,9.88622 -1.61436,-8.4739 -2.42104,8.67544 -1.00873,-8.07031 -4.64055,15.53548 c 0,0 -1.91357,-11.6594 -1.86087,-13.95832 -0.40703,1.73123 -2.57812,9.11624 -2.57812,9.11624 0,0 -1.81563,-12.50945 -1.61386,-13.3165 0.20175,-0.80705 -5.24621,12.10572 -5.24621,12.10572 l -3.42977,-14.93035 -10.08827,15.536 c 0,0 -2.21927,-21.99214 -2.42104,-23.20272 -0.19968,-1.19819 -4.32623,12.14786 -4.41108,12.4225 l -0.0331,0.0687 -2.61742,-8.45582 -2.02417,13.43123 -1.00253,-5.76451 -0.16071,0.41393 -2.05827,-14.1335 -4.7992,14.26011 -0.85005,-3.16364 -3.8339,9.88674 -1.61385,-8.47442 -2.42104,8.67596 -1.00923,-8.07031 -4.64055,15.53549 c 0,0 -1.91283,-11.65476 -1.86087,-13.95678 -0.40799,1.73413 -2.57762,9.11469 -2.57762,9.11469 0,0 -1.81613,-12.50945 -1.61438,-13.3165 0.20177,-0.80705 -5.24566,12.10573 -5.24566,12.10573 l -3.42977,-14.93036 -10.08827,15.53549 c 0,0 -2.2193,-21.99163 -2.42104,-23.2022 -0.20177,-1.21058 -4.43902,12.50879 -4.43902,12.50879 l -2.62257,-8.4739 -2.2195,14.72882 -3.02669,-20.78168 -7.06159,20.98321 -2.2195,10.08828 -3.02617,-24.21144 -5.64927,11.90418 -1.61437,-9.28109 -4.23695,10.89495 -3.63182,-13.51804 -3.83336,9.88621 -1.61385,-8.4739 -2.42156,8.67596 -1.00872,-8.07083 -4.64055,15.53601 c 0,0 -1.91279,-11.65462 -1.86087,-13.95677 -0.40802,1.73427 -2.57762,9.11417 -2.57762,9.11417 0,0 -1.81614,-12.50893 -1.61437,-13.31598 0.20176,-0.80706 -5.24567,12.10572 -5.24567,12.10572 l -3.42977,-14.93036 -10.08827,15.53549 c 0,0 -2.21928,-21.99214 -2.42104,-23.20272 -0.20176,-1.210568 -4.43901,12.50931 -4.43901,12.50931 l -2.62258,-8.4739 -2.2195,14.7283 -3.02669,-20.781158 -7.06158,20.983218 0.23151,14.19293 -2.80448,-22.43636 -5.64927,11.90367 -1.61437,-9.28109 -4.23695,10.89546 -3.63182,-13.51804 -3.83336,9.88622 -1.61386,-8.4739 -2.42155,8.67596 -1.00873,-8.07083 -4.64054,15.536 c 0,0 -1.91333,-11.65837 -1.86087,-13.95832 -0.40728,1.73198 -2.57762,9.11572 -2.57762,9.11572 0,0 -1.81613,-12.50893 -1.61437,-13.31598 0.20176,-0.80705 -5.24568,12.10572 -5.24568,12.10572 l -3.42973,-14.93087 -10.08827,15.536 c 0,0 -2.21928,-21.99213 -2.42105,-23.202708 -0.20175,-1.21058 -4.439,12.509308 -4.439,12.509308 l -2.6231,-8.4739 -2.21898,14.7283 -3.02669,-20.781158 -5.84771,17.376708 -0.57981,-4.63692 -5.64927,11.90366 -1.61437,-9.28108 -4.23695,10.89545 -3.6313,-13.51803 -3.83387,9.88622 -1.61386,-8.4739 -2.42104,8.67543 -1.00924,-8.0703 -4.64054,15.53548 c 0,0 -1.91258,-11.6532 -1.86087,-13.95625 -0.40803,1.73427 -2.57762,9.11417 -2.57762,9.11417 0,0 -1.81614,-12.50945 -1.61437,-13.3165 0.20176,-0.80704 -5.24568,12.10572 -5.24568,12.10572 l -3.42977,-14.93035 -6.90293,10.63087 -1.03405,-8.26978 -2.87579,6.05958 c -0.67068,-6.59114 -1.55917,-15.26315 -1.69654,-16.087388 -0.20176,-1.21057 -4.439,12.509318 -4.439,12.509318 l -2.62258,-8.47391 -1.83555,12.18169 -1.64848,-6.13503 -1.76206,-12.099488 -6.48023,19.256188 -0.64957,-5.19348 -4.64055,15.536 c 0,0 -1.91279,-11.65461 -1.86086,-13.95677 -0.40803,1.73427 -2.57762,9.11418 -2.57762,9.11418 0,0 -1.81614,-12.50894 -1.61438,-13.31599 0.20177,-0.80705 -5.24567,12.10572 -5.24567,12.10572 l -2.72128,-11.8463 v 38.93715 6.5593 76.85112 h 508 c 0,-40.98877 0,-81.97754 0,-122.96631 m -444.52532,5.63032 c 0.072,-0.30596 0.10598,-0.48948 0.0455,-0.36846 -0.0286,0.0573 -0.0415,0.19255 -0.0455,0.36846 z m 74.62335,0.3731 c 0.0717,-0.30507 0.10539,-0.48777 0.045,-0.3669 -0.0286,0.0571 -0.041,0.19169 -0.045,0.3669 z m 77.83039,0.37621 c 0.072,-0.30596 0.10548,-0.48948 0.045,-0.36846 -0.0286,0.0572 -0.041,0.19275 -0.045,0.36846 z m 80.5031,6.25439 c 0.072,-0.3059 0.10599,-0.48946 0.0455,-0.36845 -0.0286,0.0572 -0.0415,0.19278 -0.0455,0.36845 z m 58.71321,2.0159 c 0.0717,-0.30478 0.10536,-0.48719 0.045,-0.36638 -0.0285,0.0571 -0.0409,0.19141 -0.045,0.36638 z m 75.03158,4.07934 c 0.072,-0.30596 0.10599,-0.49 0.0455,-0.36897 -0.0286,0.0573 -0.0415,0.19306 -0.0455,0.36897 z M 534.30965,113.05269 c 0.072,-0.30595 0.10599,-0.48948 0.0455,-0.36845 -0.0286,0.0572 -0.0415,0.19274 -0.0455,0.36845 z"
       id="path1439-7"
       sodipodi:nodetypes="ccccccccccccccccccccccccccccccccccccccccccccccccccccccccccccccccccccccccccccccccccccccccccccccccccccccccccccccccccsccccccccccccccccccccccccccccccccccccccccccccccccccccccccccccccccccc" />
    <path
       inkscape:connector-curvature="0"
       style="fill:#4b9f86;fill-opacity:1;stroke:none;stroke-width:0.16725102px;stroke-linecap:butt;stroke-linejoin:miter;stroke-opacity:1"
       d="m 585.31201,483.01695 -9.7932,29.10157 -0.971,-7.76594 -9.46093,19.93574 -2.70371,-15.54377 -7.09569,18.24747 -6.08128,-22.63944 -6.4208,16.55662 -2.70319,-14.19138 -4.05454,14.52933 -1.68981,-13.51595 -7.77214,26.01804 c 0,0 -3.2027,-19.51625 -3.11609,-23.37324 -0.68335,2.90441 -4.31705,15.26418 -4.31705,15.26418 0,0 -3.04161,-20.95039 -2.70371,-22.30202 0.33791,-1.35154 -8.78499,20.27423 -8.78499,20.27423 l -5.74384,-25.00468 -3.26905,5.03483 v 99.11644 H 1006.631 l 0.1236,-99.18768 c -1.7662,4.49096 -10.64183,35.14973 -10.64183,35.14973 l -5.74384,-25.00416 -16.89507,26.01857 c 0,0 -3.71716,-36.83122 -4.05506,-38.85861 -0.33443,-2.00668 -7.24501,20.3445 -7.38714,20.80442 l -0.0553,0.11523 -4.38372,-14.1614 -4.29677,17.84012 -4.48822,-27.97697 -8.03722,23.88174 -1.42369,-5.29786 -6.42081,16.55763 -2.70266,-14.19241 -4.05453,14.52986 -1.69034,-13.51545 -7.77164,26.01754 c 0,0 -3.20363,-19.5185 -3.1166,-23.37377 -0.68326,2.9042 -4.31705,15.26469 -4.31705,15.26469 0,0 -3.04107,-20.94987 -2.7032,-22.30147 0.33793,-1.3516 -8.78549,20.2737 -8.78549,20.2737 l -5.74384,-25.00416 -16.8951,26.01754 c 0,0 -3.71663,-36.83019 -4.05452,-38.85758 -0.3379,-2.0274 -7.43419,20.9491 -7.43419,20.9491 l -4.39198,-14.19191 -3.71707,24.66724 -5.06894,-34.80409 -14.03187,37.48456 -6.57981,-25.99585 -9.46092,19.93678 -2.7037,-15.54377 -7.0957,18.24644 -6.08232,-22.63945 -6.41977,16.55713 -2.70267,-14.19188 -4.05556,14.53036 -1.68931,-13.51648 -7.7716,26.01857 c 0,0 -3.20358,-19.51826 -3.11661,-23.37377 -0.68334,2.90444 -4.31705,15.26366 -4.31705,15.26366 0,0 -3.04162,-20.94937 -2.70372,-22.30097 0.33795,-1.35159 -8.78499,20.27423 -8.78499,20.27423 l -5.74384,-25.00469 -16.89509,26.01807 c 0,0 -3.71664,-36.83122 -4.05453,-38.85861 -0.3379,-2.0274 -7.43418,20.95013 -7.43418,20.95013 l -4.39198,-14.19188 -3.71708,24.66618 -5.06894,-34.80303 -11.82615,35.14151 v 0 l -4.3093,-13.80588 -9.46093,19.93575 -2.70371,-15.54324 -7.09569,18.24693 -6.08231,-22.63944 -6.41977,16.55712 -2.70319,-14.19188 -4.05505,14.52986 -1.6893,-13.51648 -7.77214,26.01908 c 0,0 -3.20394,-19.52506 -3.11609,-23.37687 -0.68208,2.90063 -4.31704,15.26678 -4.31704,15.26678 0,0 -3.04162,-20.94939 -2.70372,-22.30099 0.3379,-1.35157 -8.78499,20.27423 -8.78499,20.27423 l -5.74383,-25.00572 -16.8951,26.0191 c 0,0 -3.71663,-36.83122 -4.05453,-38.85862 -0.3379,-2.02739 -7.43417,20.94963 -7.43417,20.94963 l -4.39301,-14.19137 -3.71657,24.66617 z m 63.1119,27.98381 c 0.12015,-0.51091 0.17612,-0.81685 0.0749,-0.61444 -0.0478,0.0957 -0.0682,0.32102 -0.0749,0.61444 z m 130.34503,0.63045 c 0.12057,-0.51242 0.17669,-0.8197 0.0754,-0.61701 -0.0479,0.0958 -0.0687,0.32274 -0.0754,0.61701 z m 134.82122,10.4743 c 0.12059,-0.51231 0.17727,-0.81968 0.076,-0.61701 -0.0479,0.0958 -0.0692,0.32279 -0.076,0.61701 z M 523.44963,510.376 c 0.12054,-0.51242 0.17735,-0.8197 0.076,-0.61703 -0.0479,0.096 -0.0694,0.32242 -0.076,0.61703 z"
       id="path1593-7"
       sodipodi:nodetypes="ccccccccccccccccccccccccccccccccccccccccccccccccccccccccccccccccccccccccccccccccccccccccscccccccccccccccc" />
    <rect
       y="873.79169"
       x="-114.90476"
       height="285.75"
       width="10160"
       id="rect1318-5"
       style="fill:url(#linearGradient1328-2);fill-opacity:1;stroke:none;stroke-width:0.39927942;stroke-linecap:round;stroke-miterlimit:4;stroke-dasharray:none;stroke-opacity:1;paint-order:normal" />
    <path
       style="fill:#b5fcff;fill-opacity:1;stroke:none;stroke-width:1.03504193px;stroke-linecap:butt;stroke-linejoin:miter;stroke-opacity:1"
       d="M 20071.877 3674.8047 C 19182.864 3677.7928 18352.032 4189.7818 17468.203 4292.2305 C 16633.818 4388.9474 15785.009 4380.2338 14950.363 4286.1172 C 14426.907 4227.0915 13929.035 3994.0793 13405.326 3937.668 C 12600.625 3850.9894 11783.191 3863.6577 10979.043 3956.0078 C 10480.992 4013.2049 10009.312 4288.3841 9508.3965 4286.1172 C 9240.8857 4284.9066 8991.9383 4100.4489 8724.4336 4102.7227 C 8450.0803 4105.055 8195.7847 4270.2051 7923.3027 4304.457 C 7239.4271 4390.4224 6539.2684 4414.1059 5857.5293 4310.5703 C 5481.6485 4253.4851 5140.5282 4024.6321 4764.5566 3968.2344 C 4154.423 3876.7112 3531.0816 3938.1831 2916.2344 3980.4609 C 2323.6172 4021.2099 1740.8792 4176.1849 1148.0234 4212.7598 C 675.27069 4241.925 -208.8697 4211.2782 -434.28516 4202.6719 L -434.28516 4382.5195 L 37965.715 4382.5195 L 37965.715 4243.5508 C 37906.508 4245.9151 37034.032 4279.6315 36592.338 4231.0996 C 36068.021 4173.4894 35567.602 3936.6636 35041.578 3900.9883 C 34469.094 3862.162 33898.058 4005.16 33324.869 4029.3652 C 32907.445 4046.9926 32487.65 4000.5235 32071.672 4041.5918 C 31635.745 4084.63 31214.405 4243.7714 30778.418 4286.1172 C 29853.286 4375.9721 28915.264 4410.4123 27991.627 4304.457 C 27418.313 4238.6895 26879.879 3882.4168 26303.531 3900.9883 C 26055.521 3908.9801 25833.977 4084.4328 25588.234 4121.0625 C 24987.481 4210.609 24372.856 4170.6009 23768.523 4114.9492 C 23429.228 4083.7042 23100.73 3962.2297 22761.389 3931.5547 C 22238.707 3884.3068 21709.34 3990.8831 21187.738 3931.5547 C 20809.393 3888.5214 20452.359 3673.5258 20071.877 3674.8047 z "
       transform="scale(0.26458333)"
       id="path1656" />
  </g>
</svg>
