<?xml version="1.0" encoding="UTF-8" standalone="no"?>
<!-- Created with Inkscape (http://www.inkscape.org/) -->

<svg
   xmlns:dc="http://purl.org/dc/elements/1.1/"
   xmlns:cc="http://creativecommons.org/ns#"
   xmlns:rdf="http://www.w3.org/1999/02/22-rdf-syntax-ns#"
   xmlns:svg="http://www.w3.org/2000/svg"
   xmlns="http://www.w3.org/2000/svg"
   xmlns:xlink="http://www.w3.org/1999/xlink"
   xmlns:sodipodi="http://sodipodi.sourceforge.net/DTD/sodipodi-0.dtd"
   xmlns:inkscape="http://www.inkscape.org/namespaces/inkscape"
   width="508.00027mm"
   height="305.32434mm"
   viewBox="0 0 508.00027 305.32438"
   version="1.1"
   id="svg8"
   inkscape:version="0.92.4 (5da689c313, 2019-01-14)"
   sodipodi:docname="Background-level-1.svg"
   inkscape:export-filename="C:\Users\ToreDenStore\Desktop\Jonatan\Projects\Sommarkurs 2020\Skier game\Artwork\Exports\Ground.png"
   inkscape:export-xdpi="200"
   inkscape:export-ydpi="200">
  <defs
     id="defs2">
    <linearGradient
       inkscape:collect="always"
       id="linearGradient1283">
      <stop
         style="stop-color:#666666;stop-opacity:1"
         offset="0"
         id="stop1279" />
      <stop
         style="stop-color:#dde4ff;stop-opacity:1"
         offset="1"
         id="stop1281" />
    </linearGradient>
    <linearGradient
       inkscape:collect="always"
       id="linearGradient821">
      <stop
         style="stop-color:#1866ec;stop-opacity:1"
         offset="0"
         id="stop817" />
      <stop
         style="stop-color:#5790f0;stop-opacity:0.08080808"
         offset="1"
         id="stop819" />
    </linearGradient>
    <filter
       inkscape:collect="always"
       style="color-interpolation-filters:sRGB"
       id="filter1071"
       x="-0.10296384"
       width="1.2059277"
       y="-0.17052694"
       height="1.3410538">
      <feGaussianBlur
         inkscape:collect="always"
         stdDeviation="19.988205"
         id="feGaussianBlur1073" />
    </filter>
    <filter
       inkscape:collect="always"
       style="color-interpolation-filters:sRGB"
       id="filter1139"
       x="-0.11124482"
       width="1.2224896"
       y="-0.19473775"
       height="1.3894755">
      <feGaussianBlur
         inkscape:collect="always"
         stdDeviation="32.772773"
         id="feGaussianBlur1141" />
    </filter>
    <filter
       inkscape:collect="always"
       style="color-interpolation-filters:sRGB"
       id="filter1227"
       x="-0.043763053"
       width="1.0875261"
       y="-0.062856063"
       height="1.1257122">
      <feGaussianBlur
         inkscape:collect="always"
         stdDeviation="4.4935844"
         id="feGaussianBlur1229" />
    </filter>
    <linearGradient
       inkscape:collect="always"
       xlink:href="#linearGradient1283"
       id="linearGradient1285"
       x1="149.1364"
       y1="301.81085"
       x2="149.1364"
       y2="67.148209"
       gradientUnits="userSpaceOnUse" />
    <linearGradient
       inkscape:collect="always"
       xlink:href="#linearGradient1283"
       id="linearGradient1292"
       gradientUnits="userSpaceOnUse"
       x1="149.1364"
       y1="301.81085"
       x2="149.1364"
       y2="67.148209"
       gradientTransform="scale(3.7795275)" />
    <linearGradient
       inkscape:collect="always"
       xlink:href="#linearGradient821"
       id="linearGradient1328"
       gradientUnits="userSpaceOnUse"
       gradientTransform="translate(1.6411813e-4,-424.42411)"
       x1="153.94724"
       y1="270.27307"
       x2="153.94725"
       y2="-14.10173" />
    <linearGradient
       inkscape:collect="always"
       xlink:href="#linearGradient1283"
       id="linearGradient1330"
       gradientUnits="userSpaceOnUse"
       gradientTransform="translate(4.1181294e-6,-424.42402)"
       x1="149.1364"
       y1="301.81085"
       x2="149.1364"
       y2="67.148209" />
    <linearGradient
       inkscape:collect="always"
       xlink:href="#linearGradient821"
       id="linearGradient1428"
       gradientUnits="userSpaceOnUse"
       gradientTransform="translate(-3.0236454,-35.864585)"
       x1="153.94724"
       y1="270.27307"
       x2="153.94725"
       y2="-14.10173" />
    <linearGradient
       inkscape:collect="always"
       xlink:href="#linearGradient1283"
       id="linearGradient1430"
       gradientUnits="userSpaceOnUse"
       gradientTransform="translate(-3.0238054,-35.864495)"
       x1="149.1364"
       y1="301.81085"
       x2="149.1364"
       y2="67.148209" />
    <linearGradient
       inkscape:collect="always"
       xlink:href="#linearGradient821"
       id="linearGradient1589"
       gradientUnits="userSpaceOnUse"
       gradientTransform="translate(-0.88548918,329.76013)"
       x1="153.94724"
       y1="270.27307"
       x2="153.94725"
       y2="-14.10173" />
    <linearGradient
       inkscape:collect="always"
       xlink:href="#linearGradient1283"
       id="linearGradient1591"
       gradientUnits="userSpaceOnUse"
       gradientTransform="translate(-0.88564918,329.76022)"
       x1="149.1364"
       y1="301.81085"
       x2="149.1364"
       y2="67.148209" />
    <linearGradient
       inkscape:collect="always"
       xlink:href="#linearGradient821"
       id="linearGradient1680"
       gradientUnits="userSpaceOnUse"
       gradientTransform="translate(1.6411813e-4,-424.42411)"
       x1="153.94724"
       y1="270.27307"
       x2="153.94725"
       y2="-14.10173" />
  </defs>
  <sodipodi:namedview
     id="base"
     pagecolor="#ffffff"
     bordercolor="#666666"
     borderopacity="1.0"
     inkscape:pageopacity="0.0"
     inkscape:pageshadow="2"
     inkscape:zoom="0.175"
     inkscape:cx="1149.6969"
     inkscape:cy="-205.06128"
     inkscape:document-units="px"
     inkscape:current-layer="layer1"
     showgrid="false"
     inkscape:window-width="1920"
     inkscape:window-height="1017"
     inkscape:window-x="-8"
     inkscape:window-y="-8"
     inkscape:window-maximized="1"
     showborder="false"
     fit-margin-top="0"
     fit-margin-left="0"
     fit-margin-right="0"
     fit-margin-bottom="0"
     inkscape:snap-global="false" />
  <metadata
     id="metadata5">
    <rdf:RDF>
      <cc:Work
         rdf:about="">
        <dc:format>image/svg+xml</dc:format>
        <dc:type
           rdf:resource="http://purl.org/dc/dcmitype/StillImage" />
        <dc:title></dc:title>
      </cc:Work>
    </rdf:RDF>
  </metadata>
  <g
     inkscape:label="Layer 1"
     inkscape:groupmode="layer"
     id="layer1"
     transform="translate(105.32432,-295.316)">
    <rect
       style="opacity:1;fill:#f9ffff;fill-opacity:1;stroke:none;stroke-width:0.18970442;stroke-linecap:round;stroke-miterlimit:4;stroke-dasharray:none;stroke-opacity:1;paint-order:normal"
       id="rect1698"
       width="508.00003"
       height="285.75"
       x="-104.43864"
       y="-439.29391"
       inkscape:export-xdpi="200"
       inkscape:export-ydpi="200" />
    <rect
       y="-439.29391"
       x="-104.43858"
       height="285.75"
       width="508"
       id="rect1318"
       style="fill:url(#linearGradient1680);fill-opacity:1;stroke:none;stroke-width:0.08928159;stroke-linecap:round;stroke-miterlimit:4;stroke-dasharray:none;stroke-opacity:1;paint-order:normal"
       inkscape:export-xdpi="200"
       inkscape:export-ydpi="200" />
    <path
       style="fill:#fdffc8;fill-opacity:0.52261305;stroke:none;stroke-width:1.09768701;stroke-linecap:round;stroke-miterlimit:4;stroke-dasharray:none;stroke-opacity:1;paint-order:normal;filter:url(#filter1139)"
       d="m 731.9707,-1660.3242 a 353.52083,353.52083 0 0 0 -1.59765,26.3808 353.52083,353.52083 0 0 0 353.52145,353.5196 353.52083,353.52083 0 0 0 353.5196,-353.5196 353.52083,353.52083 0 0 0 -1.5059,-26.3808 z"
       transform="scale(0.26458333)"
       id="path1320"
       inkscape:connector-curvature="0"
       inkscape:export-xdpi="200"
       inkscape:export-ydpi="200" />
    <path
       style="fill:#fcff95;fill-opacity:0.63316585;stroke:none;stroke-width:0.72332603;stroke-linecap:round;stroke-miterlimit:4;stroke-dasharray:none;stroke-opacity:1;paint-order:normal;filter:url(#filter1071)"
       d="m 848.27344,-1660.3242 a 232.95423,232.95423 0 0 0 -1.375,24.3594 232.95423,232.95423 0 0 0 232.95506,232.955 232.95423,232.95423 0 0 0 232.9531,-232.955 232.95423,232.95423 0 0 0 -1.4687,-24.3594 z"
       transform="scale(0.26458333)"
       id="path1322"
       inkscape:connector-curvature="0"
       inkscape:export-xdpi="200"
       inkscape:export-ydpi="200" />
    <path
       style="fill:#faff61;fill-opacity:1;stroke:none;stroke-width:0.38258696;stroke-linecap:round;stroke-miterlimit:4;stroke-dasharray:none;stroke-opacity:1;paint-order:normal;filter:url(#filter1227)"
       d="m 959.10352,-1660.3242 a 123.21587,123.21587 0 0 0 -2.4668,24.3594 123.21587,123.21587 0 0 0 123.21678,123.2168 123.21587,123.21587 0 0 0 123.2149,-123.2168 123.21587,123.21587 0 0 0 -2.5059,-24.3594 z"
       transform="scale(0.26458333)"
       id="path1324"
       inkscape:connector-curvature="0"
       inkscape:export-xdpi="200"
       inkscape:export-ydpi="200" />
    <path
       sodipodi:nodetypes="cccccccscccccsccccc"
       inkscape:connector-curvature="0"
       id="path1326"
       d="m -63.610066,-364.22458 -40.828524,34.48575 v 176.19491 h 508 v -180.37466 l -16.02073,25.82029 -8.01812,-8.55245 c 0,0 -20.22412,31.02588 -36.34867,32.07246 -18.44384,1.19712 -45.97032,-31.00328 -45.97032,-31.00328 l -16.57057,13.89786 -41.15977,-30.46894 -23.51949,14.43271 -25.65787,-21.38164 c 0,0 -28.5955,51.46224 -53.98843,54.52329 -18.26442,2.20173 -47.039506,-28.86542 -47.039506,-28.86542 l -29.93409,19.24327 -33.67598,-25.65787 -23.5194899,17.10542 z"
       style="fill:url(#linearGradient1330);fill-opacity:1;stroke:none;stroke-width:0.26458332px;stroke-linecap:butt;stroke-linejoin:miter;stroke-opacity:1"
       inkscape:export-xdpi="200"
       inkscape:export-ydpi="200" />
    <rect
       style="fill:url(#linearGradient1428);fill-opacity:1;stroke:none;stroke-width:0.08928159;stroke-linecap:round;stroke-miterlimit:4;stroke-dasharray:none;stroke-opacity:1;paint-order:normal"
       id="rect1418"
       width="508"
       height="285.75"
       x="-107.46239"
       y="-50.73439" />
    <path
       id="path1420"
       transform="matrix(0.26458333,0,0,0.26458333,-3.0238095,388.55952)"
       d="m 731.9707,-1660.3242 a 353.52083,353.52083 0 0 0 -1.59765,26.3808 353.52083,353.52083 0 0 0 353.52145,353.5196 353.52083,353.52083 0 0 0 353.5196,-353.5196 353.52083,353.52083 0 0 0 -1.5059,-26.3808 z"
       style="fill:#fdffc8;fill-opacity:0.52261305;stroke:none;stroke-width:1.09768701;stroke-linecap:round;stroke-miterlimit:4;stroke-dasharray:none;stroke-opacity:1;paint-order:normal;filter:url(#filter1139)"
       inkscape:connector-curvature="0" />
    <path
       id="path1422"
       transform="matrix(0.26458333,0,0,0.26458333,-3.0238095,388.55952)"
       d="m 848.27344,-1660.3242 a 232.95423,232.95423 0 0 0 -1.375,24.3594 232.95423,232.95423 0 0 0 232.95506,232.955 232.95423,232.95423 0 0 0 232.9531,-232.955 232.95423,232.95423 0 0 0 -1.4687,-24.3594 z"
       style="fill:#fcff95;fill-opacity:0.63316585;stroke:none;stroke-width:0.72332603;stroke-linecap:round;stroke-miterlimit:4;stroke-dasharray:none;stroke-opacity:1;paint-order:normal;filter:url(#filter1071)"
       inkscape:connector-curvature="0" />
    <path
       id="path1424"
       transform="matrix(0.26458333,0,0,0.26458333,-3.0238095,388.55952)"
       d="m 959.10352,-1660.3242 a 123.21587,123.21587 0 0 0 -2.4668,24.3594 123.21587,123.21587 0 0 0 123.21678,123.2168 123.21587,123.21587 0 0 0 123.2149,-123.2168 123.21587,123.21587 0 0 0 -2.5059,-24.3594 z"
       style="fill:#faff61;fill-opacity:1;stroke:none;stroke-width:0.38258696;stroke-linecap:round;stroke-miterlimit:4;stroke-dasharray:none;stroke-opacity:1;paint-order:normal;filter:url(#filter1227)"
       inkscape:connector-curvature="0" />
    <path
       style="fill:url(#linearGradient1430);fill-opacity:1;stroke:none;stroke-width:0.26458332px;stroke-linecap:butt;stroke-linejoin:miter;stroke-opacity:1"
       d="M -66.633876,24.334945 -107.4624,58.820695 V 235.0156 h 508 V 54.640945 l -16.02073,25.82029 -8.01812,-8.55245 c 0,0 -20.22412,31.025875 -36.34867,32.072455 -18.44384,1.19712 -45.97032,-31.003275 -45.97032,-31.003275 l -16.57057,13.89786 -41.15977,-30.46894 -23.51949,14.43271 -25.65787,-21.38164 c 0,0 -28.5955,51.462235 -53.98843,54.523285 -18.26442,2.20173 -47.039506,-28.865415 -47.039506,-28.865415 l -29.93409,19.24327 -33.67598,-25.65787 -23.51948943,17.10542 z"
       id="path1426"
       inkscape:connector-curvature="0"
       sodipodi:nodetypes="cccccccscccccsccccc" />
    <path
       style="fill:#73aba4;fill-opacity:1;stroke:none;stroke-width:0.37745094px;stroke-linecap:butt;stroke-linejoin:miter;stroke-opacity:1"
       d="m -308.68164,381.61328 -24.49219,72.7793 -2.45508,-19.62891 -17.53906,58.71875 c 0,0 -7.22944,-44.04893 -7.0332,-52.75 -1.54214,6.55473 -9.74219,34.44727 -9.74219,34.44727 0,0 -6.86412,-47.27786 -6.10156,-50.32813 0.76259,-3.05027 -19.82617,45.75391 -19.82617,45.75391 l -10.28516,-44.77344 v 147.16406 24.79102 290.46094 H 1513.8438 v -228.56836 -86.6836 -18.61718 l -0.2188,0.73242 c 0,0 -7.2334,-44.07289 -7.0332,-52.75781 -1.5384,6.54322 -9.7441,34.45507 -9.7441,34.45507 0,0 -6.8622,-47.27785 -6.0997,-50.32812 0.7626,-3.05027 -19.8281,45.75391 -19.8281,45.75391 l -12.9629,-56.42969 -38.1289,58.71679 c 0,0 -8.3878,-83.11989 -9.1504,-87.69531 -0.7625,-4.57538 -16.7754,47.2793 -16.7754,47.2793 l -9.914,-32.02735 -8.3887,55.66797 -11.4375,-78.54492 -25.0273,74.36133 -4.1094,-32.875 -21.3516,44.99023 -6.1015,-35.07812 -16.0137,41.17969 -13.7246,-51.0918 -14.4902,37.36523 -6.0997,-32.02734 -9.1503,32.78906 -3.8145,-30.50195 -17.5391,58.7168 c 0,0 -7.2286,-44.04361 -7.0332,-52.74805 -1.5421,6.55473 -9.7422,34.44727 -9.7422,34.44727 0,0 -6.8641,-47.27981 -6.1015,-50.33008 0.7625,-3.05027 -19.8262,45.7539 -19.8262,45.7539 l -12.9629,-56.42968 -38.1289,58.71875 c 0,0 -8.3878,-83.1199 -9.1504,-87.69532 -0.7625,-4.57538 -16.7773,47.2793 -16.7773,47.2793 l -9.9121,-32.0293 -8.3887,55.66797 -11.4395,-78.54492 -21.9531,65.23242 -3.8847,-31.07422 -21.3516,44.99024 -6.0996,-35.07813 -16.0137,41.17969 -13.72655,-51.0918 -14.48828,37.36524 -6.10157,-32.02735 -9.15039,32.78907 -3.8125,-30.50196 -17.53906,58.7168 c 0,0 -7.23243,-44.06703 -7.0332,-52.75586 -1.5384,6.54322 -9.74414,34.45508 -9.74414,34.45508 0,0 -6.86217,-47.27981 -6.09961,-50.33008 0.76255,-3.05027 -19.82813,45.75391 -19.82813,45.75391 l -12.96289,-56.42969 -38.1289,58.71875 c -10e-6,0 -8.38784,-83.11989 -9.1504,-87.69531 -0.75476,-4.52862 -16.35109,45.91317 -16.67187,46.95117 l -0.125,0.25977 -9.89258,-31.95899 -7.65039,50.76367 -3.78906,-21.78711 -0.60742,1.56446 -7.7793,-53.41797 -18.13867,53.89648 -3.21289,-11.95703 -14.49024,37.36719 -6.09961,-32.0293 -9.15039,32.79102 -3.81445,-30.50196 -17.53906,58.7168 c 0,0 -7.2296,-44.04946 -7.03321,-52.75 -1.54197,6.55419 -9.74218,34.44922 -9.74218,34.44922 0,0 -6.86412,-47.27981 -6.10157,-50.33008 0.76256,-3.05027 -19.82617,45.75391 -19.82617,45.75391 l -12.96289,-56.42969 -38.12891,58.7168 c 0,0 -8.38783,-83.11794 -9.15039,-87.69336 -0.76255,-4.57539 -16.77734,47.27734 -16.77734,47.27734 l -9.91211,-32.02734 -8.38867,55.66797 -11.43945,-78.54493 -26.68946,79.30664 -8.38867,38.12891 -11.4375,-91.50781 -21.35156,44.99219 -6.10156,-35.07813 -16.01368,41.17774 -13.72656,-51.0918 -14.48828,37.36523 -6.09961,-32.02734 -9.15234,32.79101 -3.8125,-30.5039 -17.53906,58.71875 c -10e-6,0 -7.22944,-44.04894 -7.03321,-52.75 -1.54213,6.55473 -9.74219,34.44726 -9.74219,34.44726 0,0 -6.86415,-47.27785 -6.10156,-50.32812 0.76256,-3.05027 -19.82617,45.75391 -19.82617,45.75391 l -12.96289,-56.42969 -38.12891,58.71679 c 0,10e-6 -8.38783,-83.11989 -9.15039,-87.69531 -0.76255,-4.57538 -16.77734,47.2793 -16.77734,47.2793 l -9.91211,-32.02734 -8.38867,55.66601 -11.43946,-78.54297 -26.68945,79.30664 0.875,53.64258 -10.59961,-84.79883 -21.35156,44.99024 -6.10156,-35.07813 -16.01368,41.17969 -13.72656,-51.0918 -14.48828,37.36524 -6.09961,-32.02735 -9.15234,32.79102 -3.8125,-30.50391 -17.53906,58.71875 c 0,0 -7.23147,-44.06312 -7.03321,-52.75586 -1.53932,6.54607 -9.74219,34.45313 -9.74218,34.45313 -1e-5,0 -6.864131,-47.27786 -6.101568,-50.32813 0.762568,-3.05026 -19.826171,45.75391 -19.826171,45.75391 L 67.15625,419.63086 29.027344,478.34961 c 0,0 -8.387833,-83.11989 -9.150391,-87.69531 -0.762557,-4.57539 -16.7773436,47.27929 -16.7773436,47.27929 l -9.9140625,-32.02734 -8.3867189,55.66602 -11.439453,-78.54297 -22.101563,65.67578 -2.191406,-17.52539 -21.351562,44.99023 -6.101563,-35.07812 -16.013672,41.17968 -13.724609,-51.09179 -14.49023,37.36523 -6.09961,-32.02734 -9.15039,32.78906 -3.81446,-30.50195 -17.53906,58.71679 c 0,0 -7.22863,-44.0436 -7.0332,-52.74804 -1.54215,6.55473 -9.74219,34.44726 -9.74219,34.44726 0,0 -6.86413,-47.27981 -6.10156,-50.33008 0.76257,-3.05024 -19.82618,45.75391 -19.82618,45.75391 l -12.96289,-56.42969 -26.08984,40.17969 -3.9082,-31.25586 -10.86914,22.90235 c -2.53486,-24.91139 -5.89292,-57.68752 -6.41211,-60.80274 -0.76256,-4.57538 -16.77735,47.2793 -16.77735,47.2793 l -9.91211,-32.02735 -6.9375,46.04102 -6.23046,-23.1875 z m 142.42969,63.16016 c 0.27206,-1.15638 0.40058,-1.85001 0.17187,-1.39258 -0.10822,0.21645 -0.15695,0.72772 -0.17187,1.39258 z m 282.04101,1.41015 c 0.27114,-1.15302 0.39833,-1.84353 0.16992,-1.38671 -0.10795,0.21589 -0.15481,0.72451 -0.16992,1.38671 z m 294.16211,1.42188 c 0.27206,-1.15638 0.39864,-1.85 0.16992,-1.39258 -0.10814,0.2163 -0.15494,0.72849 -0.16992,1.39258 z m 304.26367,23.63867 c 0.27201,-1.15616 0.40057,-1.84996 0.17188,-1.39258 -0.10814,0.21628 -0.15689,0.72861 -0.17188,1.39258 z m 221.90821,7.61914 c 0.27083,-1.15192 0.39822,-1.84137 0.16992,-1.38476 -0.10787,0.21574 -0.15476,0.72344 -0.16992,1.38476 z m 283.58395,15.41797 c 0.2721,-1.15637 0.4006,-1.85196 0.1719,-1.39453 -0.1082,0.21645 -0.1569,0.72967 -0.1719,1.39453 z m 286.8848,8.07227 c 0.2708,-1.15193 0.3982,-1.84138 0.1699,-1.38477 -0.1078,0.21556 -0.1547,0.72433 -0.1699,1.38477 z m -1866.79297,-61.6211 c 0.27206,-1.15637 0.40059,-1.85 0.17187,-1.39258 -0.10814,0.2163 -0.15689,0.72849 -0.17187,1.39258 z"
       transform="scale(0.26458333)"
       id="path1439"
       inkscape:connector-curvature="0" />
    <rect
       y="314.89032"
       x="-105.32423"
       height="285.75"
       width="508"
       id="rect1577"
       style="fill:url(#linearGradient1589);fill-opacity:1;stroke:none;stroke-width:0.08928159;stroke-linecap:round;stroke-miterlimit:4;stroke-dasharray:none;stroke-opacity:1;paint-order:normal" />
    <path
       inkscape:connector-curvature="0"
       style="fill:#fdffc8;fill-opacity:0.52261305;stroke:none;stroke-width:1.09768701;stroke-linecap:round;stroke-miterlimit:4;stroke-dasharray:none;stroke-opacity:1;paint-order:normal;filter:url(#filter1139)"
       d="m 731.9707,-1660.3242 a 353.52083,353.52083 0 0 0 -1.59765,26.3808 353.52083,353.52083 0 0 0 353.52145,353.5196 353.52083,353.52083 0 0 0 353.5196,-353.5196 353.52083,353.52083 0 0 0 -1.5059,-26.3808 z"
       transform="matrix(0.26458333,0,0,0.26458333,-0.88565328,754.18423)"
       id="path1579" />
    <path
       inkscape:connector-curvature="0"
       style="fill:#fcff95;fill-opacity:0.63316585;stroke:none;stroke-width:0.72332603;stroke-linecap:round;stroke-miterlimit:4;stroke-dasharray:none;stroke-opacity:1;paint-order:normal;filter:url(#filter1071)"
       d="m 848.27344,-1660.3242 a 232.95423,232.95423 0 0 0 -1.375,24.3594 232.95423,232.95423 0 0 0 232.95506,232.955 232.95423,232.95423 0 0 0 232.9531,-232.955 232.95423,232.95423 0 0 0 -1.4687,-24.3594 z"
       transform="matrix(0.26458333,0,0,0.26458333,-0.88565328,754.18423)"
       id="path1581" />
    <path
       inkscape:connector-curvature="0"
       style="fill:#faff61;fill-opacity:1;stroke:none;stroke-width:0.38258696;stroke-linecap:round;stroke-miterlimit:4;stroke-dasharray:none;stroke-opacity:1;paint-order:normal;filter:url(#filter1227)"
       d="m 959.10352,-1660.3242 a 123.21587,123.21587 0 0 0 -2.4668,24.3594 123.21587,123.21587 0 0 0 123.21678,123.2168 123.21587,123.21587 0 0 0 123.2149,-123.2168 123.21587,123.21587 0 0 0 -2.5059,-24.3594 z"
       transform="matrix(0.26458333,0,0,0.26458333,-0.88565328,754.18423)"
       id="path1583" />
    <path
       sodipodi:nodetypes="cccccccscccccsccccc"
       inkscape:connector-curvature="0"
       id="path1585"
       d="m -64.49572,389.95966 -40.82852,34.48575 v 176.1949 h 508 V 420.26566 l -16.02073,25.82029 -8.01812,-8.55245 c 0,0 -20.22412,31.02587 -36.34867,32.07245 -18.44384,1.19712 -45.97032,-31.00327 -45.97032,-31.00327 l -16.57057,13.89786 -41.15977,-30.46894 -23.51949,14.43271 -25.65787,-21.38164 c 0,0 -28.5955,51.46223 -53.98843,54.52328 -18.26442,2.20173 -47.03951,-28.86541 -47.03951,-28.86541 L 58.44819,459.98381 24.77221,434.32594 1.2527208,451.43136 Z"
       style="fill:url(#linearGradient1591);fill-opacity:1;stroke:none;stroke-width:0.26458332px;stroke-linecap:butt;stroke-linejoin:miter;stroke-opacity:1" />
    <path
       id="path1587"
       d="m -79.53386,466.59323 -6.480225,19.25619 -0.649573,-5.19349 -4.640543,15.53601 c 0,0 -1.91279,-11.65462 -1.860868,-13.95677 -0.408024,1.73427 -2.577621,9.11417 -2.577621,9.11417 0,0 -1.816132,-12.50893 -1.614371,-13.31599 0.201769,-0.80705 -5.245679,12.10573 -5.245679,12.10573 l -2.72128,-11.84631 v 38.93716 6.55929 76.85112 h 508.00001 v -60.47538 -22.93503 -4.9258 l -0.0579,0.19379 c 0,0 -1.91384,-11.66095 -1.86087,-13.95884 -0.40703,1.73123 -2.57812,9.11624 -2.57812,9.11624 0,0 -1.81563,-12.50893 -1.61388,-13.31598 0.20177,-0.80705 -5.24619,12.10572 -5.24619,12.10572 L 387.88927,491.5147 377.801,507.05019 c 0,0 -2.21927,-21.99214 -2.42104,-23.20272 -0.20175,-1.21057 -4.43849,12.50931 -4.43849,12.50931 l -2.62308,-8.4739 -2.21951,14.72882 -3.02617,-20.78168 -6.62181,19.67477 -1.08728,-8.69818 -5.64928,11.90367 -1.61435,-9.28109 -4.23696,10.89546 -3.6313,-13.51804 -3.83386,9.88622 -1.61388,-8.4739 -2.42102,8.67544 -1.00925,-8.07031 -4.64056,15.53549 c 0,0 -1.91256,-11.65321 -1.86086,-13.95626 -0.40802,1.73428 -2.57763,9.11418 -2.57763,9.11418 0,0 -1.81612,-12.50945 -1.61435,-13.3165 0.20174,-0.80705 -5.24569,12.10572 -5.24569,12.10572 l -3.42976,-14.93036 -10.08827,15.53601 c 0,0 -2.21928,-21.99214 -2.42105,-23.20272 -0.20174,-1.21057 -4.43899,12.50931 -4.43899,12.50931 l -2.62258,-8.47442 -2.21951,14.72882 -3.0267,-20.78168 -5.80842,17.25941 -1.02783,-8.22172 -5.64928,11.90367 -1.61385,-9.28109 -4.23696,10.89546 -3.63181,-13.51804 -3.83336,9.88622 -1.61437,-8.4739 -2.42105,8.67544 -1.00872,-8.07031 -4.64054,15.53549 c 0,0 -1.91358,-11.6594 -1.86087,-13.95832 -0.40703,1.73122 -2.57814,9.11624 -2.57814,9.11624 0,0 -1.81561,-12.50945 -1.61385,-13.3165 0.20176,-0.80706 -5.24619,12.10572 -5.24619,12.10572 l -3.42977,-14.93036 -10.08827,15.536 c 0,0 -2.21928,-21.99213 -2.42104,-23.20271 -0.1997,-1.1982 -4.32623,12.14786 -4.4111,12.42249 l -0.0331,0.0687 -2.61741,-8.45581 -2.02416,13.43122 -1.00253,-5.76451 -0.16071,0.41393 -2.05827,-14.1335 -4.79919,14.26011 -0.85008,-3.16363 -3.83387,9.88673 -1.61386,-8.47441 -2.42104,8.67595 -1.00924,-8.07031 -4.64054,15.53549 c 0,0 -1.91283,-11.65475 -1.86087,-13.95677 -0.40798,1.73413 -2.57762,9.11469 -2.57762,9.11469 0,0 -1.81613,-12.50945 -1.61438,-13.3165 0.20177,-0.80705 -5.24567,12.10572 -5.24567,12.10572 l -3.42976,-14.93036 -10.08828,15.53549 c 0,0 -2.21928,-21.99162 -2.42104,-23.2022 -0.20176,-1.21057 -4.439,12.5088 -4.439,12.5088 l -2.62258,-8.47391 -2.2195,14.72882 -3.02669,-20.78168 -7.06159,20.98322 -2.2195,10.08827 -3.02617,-24.21144 -5.64927,11.90418 -1.61437,-9.28108 -4.23695,10.89494 -3.63182,-13.51804 -3.83336,9.88622 -1.61385,-8.4739 -2.42156,8.67595 -1.00873,-8.07082 -4.64054,15.536 c 0,0 -1.91279,-11.65461 -1.86087,-13.95677 -0.40802,1.73427 -2.57762,9.11417 -2.57762,9.11417 0,0 -1.81614,-12.50893 -1.61437,-13.31598 0.20176,-0.80705 -5.24567,12.10572 -5.24567,12.10572 L 97.736971,477.02722 87.648697,492.5627 c 0,0 -2.21928,-21.99214 -2.421041,-23.20272 -0.201758,-1.21057 -4.439004,12.50932 -4.439004,12.50932 l -2.622579,-8.4739 -2.219502,14.7283 -3.026691,-20.78117 -7.061583,20.98322 0.23151,14.19293 -2.80448,-22.43635 -5.649267,11.90366 -1.614371,-9.28109 -4.236953,10.89546 -3.631819,-13.51803 -3.833357,9.88621 -1.613855,-8.4739 -2.421557,8.67596 -1.008724,-8.07083 -4.640543,15.53601 c 0,0 -1.913326,-11.65837 -1.86087,-13.95833 -0.407278,1.73199 -2.577621,9.11573 -2.577618,9.11573 -3e-6,0 -1.816135,-12.50894 -1.614373,-13.31599 0.201762,-0.80704 -5.245675,12.10573 -5.245675,12.10573 L 19.90658,476.65204 9.8183076,492.18805 c 0,0 -2.2192808,-21.99214 -2.421041,-23.20272 -0.2017598,-1.21057 -4.4390054,12.50931 -4.4390054,12.50931 l -2.62309567,-8.4739 -2.21898603,14.7283 -3.0266886,-20.78116 -5.8477049,17.37672 -0.57981,-4.63693 -5.649267,11.90367 -1.614372,-9.28109 -4.236951,10.89546 -3.631302,-13.51804 -3.833874,9.88622 -1.613855,-8.4739 -2.42104,8.67544 -1.009243,-8.07031 -4.640543,15.53548 c 0,0 -1.912575,-11.6532 -1.860867,-13.95625 -0.408028,1.73427 -2.577621,9.11417 -2.577621,9.11417 0,0 -1.816135,-12.50945 -1.614371,-13.3165 0.201763,-0.80704 -5.245677,12.10572 -5.245677,12.10572 l -3.429765,-14.93035 -6.902937,10.63088 -1.034044,-8.26978 -2.875793,6.05958 c -0.670682,-6.59114 -1.559169,-15.26316 -1.696538,-16.0874 -0.20176,-1.21056 -4.439007,12.50932 -4.439007,12.50932 l -2.622579,-8.4739 -1.835547,12.18168 -1.648476,-6.13502 z m 37.684522,16.71112 c 0.07198,-0.30596 0.105986,-0.48948 0.04547,-0.36845 -0.02863,0.0573 -0.04153,0.19254 -0.04547,0.36845 z m 74.623349,0.3731 c 0.07174,-0.30507 0.105392,-0.48776 0.04496,-0.3669 -0.02856,0.0571 -0.04096,0.1917 -0.04496,0.3669 z m 77.830389,0.37621 c 0.072,-0.30596 0.10548,-0.48948 0.045,-0.36845 -0.0286,0.0572 -0.041,0.19274 -0.045,0.36845 z m 80.5031,6.2544 c 0.072,-0.3059 0.10598,-0.48947 0.0455,-0.36846 -0.0286,0.0572 -0.0415,0.19278 -0.0455,0.36846 z m 58.71321,2.0159 c 0.0717,-0.30478 0.10536,-0.4872 0.045,-0.36639 -0.0285,0.0571 -0.0409,0.19141 -0.045,0.36639 z m 75.03159,4.07933 c 0.072,-0.30595 0.10599,-0.48999 0.0455,-0.36897 -0.0286,0.0573 -0.0415,0.19306 -0.0455,0.36897 z m 75.90493,2.13579 c 0.0717,-0.30478 0.10536,-0.4872 0.045,-0.36639 -0.0285,0.057 -0.0409,0.19165 -0.045,0.36639 z M -93.165069,482.23517 c 0.07198,-0.30596 0.10599,-0.48948 0.04547,-0.36846 -0.02861,0.0572 -0.04151,0.19275 -0.04547,0.36846 z"
       style="fill:#73aba4;fill-opacity:1;stroke:none;stroke-width:0.09986722px;stroke-linecap:butt;stroke-linejoin:miter;stroke-opacity:1"
       inkscape:connector-curvature="0" />
    <path
       style="fill:#4b9f86;fill-opacity:1;stroke:none;stroke-width:0.63212985px;stroke-linecap:butt;stroke-linejoin:miter;stroke-opacity:1"
       d="m -70.462891,1817.5684 -37.013669,109.9902 -3.66992,-29.3516 -35.75782,75.3477 -10.21875,-58.7481 -26.81836,68.9668 -22.98437,-85.5664 -24.26758,62.5762 -10.2168,-53.6367 -15.32422,54.914 -6.38671,-51.0839 -29.375,98.3359 c 0,0 -12.10469,-73.7622 -11.77735,-88.3398 -2.58274,10.9773 -16.3164,57.6914 -16.3164,57.6914 0,0 -11.49586,-79.1826 -10.21875,-84.2911 1.27714,-5.1082 -33.20313,76.627 -33.20313,76.627 l -21.70898,-94.5059 -12.35547,19.0293 v 374.6133 H 1521.9238 V 2009.709 c -3.2402,-23.5753 -7.3371,-55.0693 -6.5468,-58.2305 1.2771,-5.1085 -33.2071,76.625 -33.2071,76.625 l -21.709,-94.5039 -63.8554,98.3379 c 0,0 -14.0491,-139.2046 -15.3262,-146.8672 -1.264,-7.5843 -27.3827,76.8926 -27.9199,78.6309 l -0.209,0.4355 -16.5684,-53.5234 -12.8125,85.0156 -6.3457,-36.4863 -1.0176,2.6191 -13.0273,-89.4609 -30.3769,90.2617 -5.3809,-20.0234 -24.2676,62.58 -10.2148,-53.6406 -15.3242,54.916 -6.3887,-51.082 -29.3731,98.334 c 0,0 -12.1082,-73.7707 -11.7793,-88.3418 -2.5824,10.9765 -16.3164,57.6933 -16.3164,57.6933 0,0 -11.4938,-79.1806 -10.2168,-84.289 1.2772,-5.1084 -33.205,76.625 -33.205,76.625 l -21.709,-94.5039 -63.8555,98.334 c 0,0 -14.0471,-139.2007 -15.3242,-146.8633 -1.2771,-7.6626 -28.09767,79.1777 -28.09767,79.1777 l -16.59961,-53.6387 -14.04883,93.2305 -19.1582,-131.543 -44.69922,132.8184 -14.04883,63.8555 -19.1543,-153.252 -35.75781,75.3516 -10.21875,-58.7481 -26.81836,68.9629 -22.98828,-85.5664 -24.26367,62.5781 -10.21485,-53.6386 -15.32812,54.9179 -6.38477,-51.0859 -29.37304,98.3379 c 0,0 -12.10793,-73.7698 -11.7793,-88.3418 -2.58263,10.9774 -16.31641,57.6894 -16.31641,57.6894 0,0 -11.49589,-79.1787 -10.21875,-84.2871 1.27726,-5.1084 -33.20312,76.627 -33.20312,76.627 l -21.70899,-94.5059 -63.85546,98.336 c 0,0 -14.04712,-139.2046 -15.32422,-146.8672 -1.27707,-7.6626 -28.09766,79.1816 -28.09766,79.1816 l -16.59961,-53.6386 -14.04883,93.2265 -19.1582,-131.539 -44.69726,132.8183 1.46484,89.836 -17.75195,-142.0157 -35.75782,75.3477 -10.21875,-58.7461 -26.81836,68.9648 -22.98828,-85.5664 -24.26367,62.5781 -10.2168,-53.6386 -15.32617,54.916 -6.38476,-51.0859 -29.375,98.3398 c 0,0 -12.10939,-73.7955 -11.77735,-88.3535 -2.57795,10.963 -16.3164,57.7012 -16.3164,57.7012 0,0 -11.49588,-79.1788 -10.21875,-84.2872 1.27709,-5.1083 -33.20313,76.627 -33.20313,76.627 l -21.708983,-94.5098 -63.855469,98.3399 c 0,0 -14.0471276,-139.2046 -15.3242186,-146.8672 -1.2770948,-7.6626 -28.0976564,79.1797 -28.0976564,79.1797 l -16.603515,-53.6367 -14.046876,93.2265 z M 168.07031,1923.334 c 0.45409,-1.931 0.66564,-3.0873 0.28321,-2.3223 -0.18078,0.3617 -0.25777,1.2133 -0.28321,2.3223 z m 492.64258,2.3828 c 0.45574,-1.9367 0.66783,-3.0981 0.28516,-2.332 -0.18104,0.362 -0.25984,1.2198 -0.28516,2.332 z m 509.56051,39.5879 c 0.4558,-1.9363 0.67,-3.098 0.2871,-2.332 -0.181,0.362 -0.2617,1.22 -0.2871,2.332 z m -1474.54684,-44.332 c 0.45559,-1.9367 0.67028,-3.0981 0.28711,-2.3321 -0.18104,0.3629 -0.26216,1.2186 -0.28711,2.3321 z"
       transform="scale(0.26458333)"
       id="path1593"
       inkscape:connector-curvature="0" />
    <path
       inkscape:connector-curvature="0"
       style="fill:#73aba4;fill-opacity:1;stroke:none;stroke-width:0.09986723px;stroke-linecap:butt;stroke-linejoin:miter;stroke-opacity:1"
       d="m 1023.8787,119.26119 c 0,0 -2.4484,-4.24423 -2.3954,-6.54211 -0.4071,1.73122 -1.4992,15.17044 -1.4992,15.17044 0,0 -3.1386,-11.18603 -2.9369,-11.99308 0.2018,-0.80705 -1.8443,14.1846 -1.8443,14.1846 l -5.8866,-10.39464 -4.0407,18.18131 c 0,0 -2.2192,-21.99213 -2.421,-23.20271 -0.2018,-1.21057 -4.4385,12.50931 -4.4385,12.50931 l -2.62308,-8.4739 -2.21951,14.72882 -3.02618,-20.78168 -6.6218,19.67477 -1.08728,-8.69818 -5.64928,11.90366 -1.61435,-9.28108 -4.23696,10.89546 -3.6313,-13.51804 -3.83387,9.88622 -1.61388,-8.4739 -2.42101,8.67544 -1.00926,-8.07031 -4.64055,15.53548 c 0,0 -1.91257,-11.6532 -1.86087,-13.95625 -0.40801,1.73427 -2.57762,9.11417 -2.57762,9.11417 0,0 -1.81613,-12.50945 -1.61436,-13.3165 0.20175,-0.80705 -5.24568,12.10572 -5.24568,12.10572 l -3.42976,-14.93035 -10.08827,15.536 c 0,0 -2.21927,-21.99214 -2.42104,-23.20272 -0.20175,-1.21057 -4.43899,12.50932 -4.43899,12.50932 l -2.62258,-8.47442 -2.21951,14.72881 -3.0267,-20.78167 -5.80843,17.25941 -1.02782,-8.22172 -5.64928,11.90367 -1.61385,-9.28109 -4.23696,10.89546 -3.63183,-13.51804 -3.83336,9.88622 -1.61436,-8.4739 -2.42104,8.67544 -1.00873,-8.07031 -4.64055,15.53548 c 0,0 -1.91357,-11.6594 -1.86087,-13.95832 -0.40703,1.73123 -2.57812,9.11624 -2.57812,9.11624 0,0 -1.81563,-12.50945 -1.61386,-13.3165 0.20175,-0.80705 -5.24621,12.10572 -5.24621,12.10572 l -3.42977,-14.93035 -10.08827,15.536 c 0,0 -2.21927,-21.99214 -2.42104,-23.20272 -0.19968,-1.19819 -4.32623,12.14786 -4.41108,12.4225 l -0.0331,0.0687 -2.61742,-8.45582 -2.02417,13.43123 -1.00253,-5.76451 -0.16071,0.41393 -2.05827,-14.1335 -4.7992,14.26011 -0.85005,-3.16364 -3.8339,9.88674 -1.61385,-8.47442 -2.42104,8.67596 -1.00923,-8.07031 -4.64055,15.53549 c 0,0 -1.91283,-11.65476 -1.86087,-13.95678 -0.40799,1.73413 -2.57762,9.11469 -2.57762,9.11469 0,0 -1.81613,-12.50945 -1.61438,-13.3165 0.20177,-0.80705 -5.24566,12.10573 -5.24566,12.10573 l -3.42977,-14.93036 -10.08827,15.53549 c 0,0 -2.2193,-21.99163 -2.42104,-23.2022 -0.20177,-1.21058 -4.43902,12.50879 -4.43902,12.50879 l -2.62257,-8.4739 -2.2195,14.72882 -3.02669,-20.78168 -7.06159,20.98321 -2.2195,10.08828 -3.02617,-24.21144 -5.64927,11.90418 -1.61437,-9.28109 -4.23695,10.89495 -3.63182,-13.51804 -3.83336,9.88621 -1.61385,-8.4739 -2.42156,8.67596 -1.00872,-8.07083 -4.64055,15.53601 c 0,0 -1.91279,-11.65462 -1.86087,-13.95677 -0.40802,1.73427 -2.57762,9.11417 -2.57762,9.11417 0,0 -1.81614,-12.50893 -1.61437,-13.31598 0.20176,-0.80706 -5.24567,12.10572 -5.24567,12.10572 l -3.42977,-14.93036 -10.08827,15.53549 c 0,0 -2.21928,-21.99214 -2.42104,-23.20272 -0.20176,-1.210568 -4.43901,12.50931 -4.43901,12.50931 l -2.62258,-8.4739 -2.2195,14.7283 -3.02669,-20.781158 -7.06158,20.983218 0.23151,14.19293 -2.80448,-22.43636 -5.64927,11.90367 -1.61437,-9.28109 -4.23695,10.89546 -3.63182,-13.51804 -3.83336,9.88622 -1.61386,-8.4739 -2.42155,8.67596 -1.00873,-8.07083 -4.64054,15.536 c 0,0 -1.91333,-11.65837 -1.86087,-13.95832 -0.40728,1.73198 -2.57762,9.11572 -2.57762,9.11572 0,0 -1.81613,-12.50893 -1.61437,-13.31598 0.20176,-0.80705 -5.24568,12.10572 -5.24568,12.10572 l -3.42973,-14.93087 -10.08827,15.536 c 0,0 -2.21928,-21.99213 -2.42105,-23.202708 -0.20175,-1.21058 -4.439,12.509308 -4.439,12.509308 l -2.6231,-8.4739 -2.21898,14.7283 -3.02669,-20.781158 -5.84771,17.376708 -0.57981,-4.63692 -5.64927,11.90366 -1.61437,-9.28108 -4.23695,10.89545 -3.6313,-13.51803 -3.83387,9.88622 -1.61386,-8.4739 -2.42104,8.67543 -1.00924,-8.0703 -4.64054,15.53548 c 0,0 -1.91258,-11.6532 -1.86087,-13.95625 -0.40803,1.73427 -2.57762,9.11417 -2.57762,9.11417 0,0 -1.81614,-12.50945 -1.61437,-13.3165 0.20176,-0.80704 -5.24568,12.10572 -5.24568,12.10572 l -3.42977,-14.93035 -6.90293,10.63087 -1.03405,-8.26978 -2.87579,6.05958 c -0.67068,-6.59114 -1.55917,-15.26315 -1.69654,-16.087388 -0.20176,-1.21057 -4.439,12.509318 -4.439,12.509318 l -2.62258,-8.47391 -1.83555,12.18169 -1.64848,-6.13503 -1.76206,-12.099488 -6.48023,19.256188 -0.64957,-5.19348 -4.64055,15.536 c 0,0 -1.91279,-11.65461 -1.86086,-13.95677 -0.40803,1.73427 -2.57762,9.11418 -2.57762,9.11418 0,0 -1.81614,-12.50894 -1.61438,-13.31599 0.20177,-0.80705 -5.24567,12.10572 -5.24567,12.10572 l -2.72128,-11.8463 v 38.93715 6.5593 76.85112 h 508 c 0,-40.98877 0,-81.97754 0,-122.96631 m -444.52532,5.63032 c 0.072,-0.30596 0.10598,-0.48948 0.0455,-0.36846 -0.0286,0.0573 -0.0415,0.19255 -0.0455,0.36846 z m 74.62335,0.3731 c 0.0717,-0.30507 0.10539,-0.48777 0.045,-0.3669 -0.0286,0.0571 -0.041,0.19169 -0.045,0.3669 z m 77.83039,0.37621 c 0.072,-0.30596 0.10548,-0.48948 0.045,-0.36846 -0.0286,0.0572 -0.041,0.19275 -0.045,0.36846 z m 80.5031,6.25439 c 0.072,-0.3059 0.10599,-0.48946 0.0455,-0.36845 -0.0286,0.0572 -0.0415,0.19278 -0.0455,0.36845 z m 58.71321,2.0159 c 0.0717,-0.30478 0.10536,-0.48719 0.045,-0.36638 -0.0285,0.0571 -0.0409,0.19141 -0.045,0.36638 z m 75.03158,4.07934 c 0.072,-0.30596 0.10599,-0.49 0.0455,-0.36897 -0.0286,0.0573 -0.0415,0.19306 -0.0455,0.36897 z M 534.30965,113.05269 c 0.072,-0.30595 0.10599,-0.48948 0.0455,-0.36845 -0.0286,0.0572 -0.0415,0.19274 -0.0455,0.36845 z"
       id="path1439-7"
       sodipodi:nodetypes="ccccccccccccccccccccccccccccccccccccccccccccccccccccccccccccccccccccccccccccccccccccccccccccccccccccccccccccccccccsccccccccccccccccccccccccccccccccccccccccccccccccccccccccccccccccccc"
       inkscape:export-xdpi="200"
       inkscape:export-ydpi="200" />
    <path
       inkscape:connector-curvature="0"
       style="fill:#4b9f86;fill-opacity:1;stroke:none;stroke-width:0.16725102px;stroke-linecap:butt;stroke-linejoin:miter;stroke-opacity:1"
       d="m 585.31201,483.01695 -9.7932,29.10157 -0.971,-7.76594 -9.46093,19.93574 -2.70371,-15.54377 -7.09569,18.24747 -6.08128,-22.63944 -6.4208,16.55662 -2.70319,-14.19138 -4.05454,14.52933 -1.68981,-13.51595 -7.77214,26.01804 c 0,0 -3.2027,-19.51625 -3.11609,-23.37324 -0.68335,2.90441 -4.31705,15.26418 -4.31705,15.26418 0,0 -3.04161,-20.95039 -2.70371,-22.30202 0.33791,-1.35154 -8.78499,20.27423 -8.78499,20.27423 l -5.74384,-25.00468 -3.26905,5.03483 v 99.11644 H 1006.631 l 0.1236,-99.18768 c -1.7662,4.49096 -10.64183,35.14973 -10.64183,35.14973 l -5.74384,-25.00416 -16.89507,26.01857 c 0,0 -3.71716,-36.83122 -4.05506,-38.85861 -0.33443,-2.00668 -7.24501,20.3445 -7.38714,20.80442 l -0.0553,0.11523 -4.38372,-14.1614 -4.29677,17.84012 -4.48822,-27.97697 -8.03722,23.88174 -1.42369,-5.29786 -6.42081,16.55763 -2.70266,-14.19241 -4.05453,14.52986 -1.69034,-13.51545 -7.77164,26.01754 c 0,0 -3.20363,-19.5185 -3.1166,-23.37377 -0.68326,2.9042 -4.31705,15.26469 -4.31705,15.26469 0,0 -3.04107,-20.94987 -2.7032,-22.30147 0.33793,-1.3516 -8.78549,20.2737 -8.78549,20.2737 l -5.74384,-25.00416 -16.8951,26.01754 c 0,0 -3.71663,-36.83019 -4.05452,-38.85758 -0.3379,-2.0274 -7.43419,20.9491 -7.43419,20.9491 l -4.39198,-14.19191 -3.71707,24.66724 -5.06894,-34.80409 -14.03187,37.48456 -6.57981,-25.99585 -9.46092,19.93678 -2.7037,-15.54377 -7.0957,18.24644 -6.08232,-22.63945 -6.41977,16.55713 -2.70267,-14.19188 -4.05556,14.53036 -1.68931,-13.51648 -7.7716,26.01857 c 0,0 -3.20358,-19.51826 -3.11661,-23.37377 -0.68334,2.90444 -4.31705,15.26366 -4.31705,15.26366 0,0 -3.04162,-20.94937 -2.70372,-22.30097 0.33795,-1.35159 -8.78499,20.27423 -8.78499,20.27423 l -5.74384,-25.00469 -16.89509,26.01807 c 0,0 -3.71664,-36.83122 -4.05453,-38.85861 -0.3379,-2.0274 -7.43418,20.95013 -7.43418,20.95013 l -4.39198,-14.19188 -3.71708,24.66618 -5.06894,-34.80303 -11.82615,35.14151 v 0 l -4.3093,-13.80588 -9.46093,19.93575 -2.70371,-15.54324 -7.09569,18.24693 -6.08231,-22.63944 -6.41977,16.55712 -2.70319,-14.19188 -4.05505,14.52986 -1.6893,-13.51648 -7.77214,26.01908 c 0,0 -3.20394,-19.52506 -3.11609,-23.37687 -0.68208,2.90063 -4.31704,15.26678 -4.31704,15.26678 0,0 -3.04162,-20.94939 -2.70372,-22.30099 0.3379,-1.35157 -8.78499,20.27423 -8.78499,20.27423 l -5.74383,-25.00572 -16.8951,26.0191 c 0,0 -3.71663,-36.83122 -4.05453,-38.85862 -0.3379,-2.02739 -7.43417,20.94963 -7.43417,20.94963 l -4.39301,-14.19137 -3.71657,24.66617 z m 63.1119,27.98381 c 0.12015,-0.51091 0.17612,-0.81685 0.0749,-0.61444 -0.0478,0.0957 -0.0682,0.32102 -0.0749,0.61444 z m 130.34503,0.63045 c 0.12057,-0.51242 0.17669,-0.8197 0.0754,-0.61701 -0.0479,0.0958 -0.0687,0.32274 -0.0754,0.61701 z m 134.82122,10.4743 c 0.12059,-0.51231 0.17727,-0.81968 0.076,-0.61701 -0.0479,0.0958 -0.0692,0.32279 -0.076,0.61701 z M 523.44963,510.376 c 0.12054,-0.51242 0.17735,-0.8197 0.076,-0.61703 -0.0479,0.096 -0.0694,0.32242 -0.076,0.61703 z"
       id="path1593-7"
       sodipodi:nodetypes="ccccccccccccccccccccccccccccccccccccccccccccccccccccccccccccccccccccccccccccccccccccccccscccccccccccccccc"
       inkscape:export-filename="C:\Users\ToreDenStore\Desktop\Jonatan\Projects\Sommarkurs 2020\Skier game\Artwork\Exports\Forest-2.png"
       inkscape:export-xdpi="200"
       inkscape:export-ydpi="200" />
    <path
       style="opacity:1;fill:#abffff;fill-opacity:1;stroke:none;stroke-width:0.2;stroke-linecap:round;stroke-miterlimit:4;stroke-dasharray:none;stroke-opacity:1;paint-order:normal"
       d="m -639.86339,550.24847 v 48.25389 h 507.99999 v -48.25389 z"
       id="rect858"
       inkscape:connector-curvature="0"
       inkscape:export-filename="C:\Users\ToreDenStore\Desktop\Jonatan\Projects\Sommarkurs 2020\Skier game\Artwork\Exports\Foreground-flat.png"
       inkscape:export-xdpi="200"
       inkscape:export-ydpi="200" />
    <path
       style="fill:#abffff;fill-opacity:1;stroke:none;stroke-width:0.26458335px;stroke-linecap:butt;stroke-linejoin:miter;stroke-opacity:1"
       d="m -193.01457,639.57215 c -130.05139,-2e-5 -270.61411,47.11724 -400.65515,48.75878 l -51.40462,0.64905 v 47.73197 h 508.00002 v -97.1398 z"
       id="path866"
       inkscape:connector-curvature="0"
       inkscape:export-filename="C:\Users\ToreDenStore\Desktop\Jonatan\Projects\Sommarkurs 2020\Skier game\Artwork\Exports\Foreground-up.png"
       inkscape:export-xdpi="200"
       inkscape:export-ydpi="200" />
    <path
       inkscape:connector-curvature="0"
       id="path871"
       d="m -168.8241,825.53644 c -101.05276,0 -330.49933,-39.06134 -443.74443,-38.17575 l -31.74986,0.64905 v 78.72602 h 505.73216 l 0.75596,-41.19932 z"
       style="fill:#abffff;fill-opacity:1;stroke:none;stroke-width:0.26458335px;stroke-linecap:butt;stroke-linejoin:miter;stroke-opacity:1"
       sodipodi:nodetypes="scccccs"
       inkscape:export-filename="C:\Users\ToreDenStore\Desktop\Jonatan\Projects\Sommarkurs 2020\Skier game\Artwork\Exports\Foreground-down.png"
       inkscape:export-xdpi="200"
       inkscape:export-ydpi="200" />
  </g>
</svg>
